# Wavefront OBJ file automatically generated by Tiled2Unity

# Vertices (Count = 427)
v -6370 -140 0
v -6440 -140 0
v -6440 -70 0
v -6370 -70 0
v -6510 -140 0
v -6510 -70 0
v -6580 -140 0
v -6580 -70 0
v -6650 -140 0
v -6650 -70 0
v -6720 -140 0
v -6720 -70 0
v 0 -210 0
v -70 -210 0
v -70 -140 0
v 0 -140 0
v -140 -210 0
v -140 -140 0
v -210 -210 0
v -210 -140 0
v -280 -210 0
v -280 -140 0
v -350 -210 0
v -350 -140 0
v -700 -210 0
v -770 -210 0
v -770 -140 0
v -700 -140 0
v -840 -210 0
v -840 -140 0
v -910 -210 0
v -910 -140 0
v -980 -210 0
v -980 -140 0
v -1050 -210 0
v -1050 -140 0
v -1120 -210 0
v -1120 -140 0
v -1190 -210 0
v -1190 -140 0
v -1260 -210 0
v -1260 -140 0
v -1330 -210 0
v -1330 -140 0
v -2100 -210 0
v -2170 -210 0
v -2170 -140 0
v -2100 -140 0
v -2240 -210 0
v -2240 -140 0
v -2310 -210 0
v -2310 -140 0
v -2380 -210 0
v -2380 -140 0
v -2450 -210 0
v -2450 -140 0
v -2520 -210 0
v -2520 -140 0
v -5740 -210 0
v -5810 -210 0
v -5810 -140 0
v -5740 -140 0
v -5880 -210 0
v -5880 -140 0
v -5950 -210 0
v -5950 -140 0
v -6020 -210 0
v -6020 -140 0
v -6090 -210 0
v -6090 -140 0
v -6160 -210 0
v -6160 -140 0
v -6370 -210 0
v -6440 -210 0
v -6510 -210 0
v -6580 -210 0
v -6650 -210 0
v -6720 -210 0
v 0 -280 0
v -70 -280 0
v -140 -280 0
v -210 -280 0
v -280 -280 0
v -350 -280 0
v -420 -280 0
v -490 -280 0
v -490 -210 0
v -420 -210 0
v -560 -280 0
v -560 -210 0
v -630 -280 0
v -630 -210 0
v -700 -280 0
v -770 -280 0
v -840 -280 0
v -910 -280 0
v -980 -280 0
v -1050 -280 0
v -1120 -280 0
v -1190 -280 0
v -1260 -280 0
v -2100 -280 0
v -2170 -280 0
v -2240 -280 0
v -2310 -280 0
v -2380 -280 0
v -2450 -280 0
v -2520 -280 0
v -2730 -280 0
v -2800 -280 0
v -2800 -210 0
v -2730 -210 0
v -2870 -280 0
v -2870 -210 0
v -2940 -280 0
v -2940 -210 0
v -5180 -280 0
v -5250 -280 0
v -5250 -210 0
v -5180 -210 0
v -5320 -280 0
v -5320 -210 0
v -5390 -280 0
v -5390 -210 0
v -5460 -280 0
v -5460 -210 0
v -5530 -280 0
v -5530 -210 0
v -5740 -280 0
v -5810 -280 0
v -5880 -280 0
v -5950 -280 0
v -6020 -280 0
v -6090 -280 0
v -6160 -280 0
v -6440 -280 0
v -6510 -280 0
v -6580 -280 0
v -6650 -280 0
v -6720 -280 0
v 0 -350 0
v -70 -350 0
v -140 -350 0
v -210 -350 0
v -280 -350 0
v -420 -350 0
v -490 -350 0
v -560 -350 0
v -630 -350 0
v -700 -350 0
v -840 -350 0
v -910 -350 0
v -980 -350 0
v -1050 -350 0
v -1120 -350 0
v -1190 -350 0
v -1470 -350 0
v -1540 -350 0
v -1540 -280 0
v -1470 -280 0
v -1610 -350 0
v -1610 -280 0
v -1680 -350 0
v -1680 -280 0
v -1750 -350 0
v -1750 -280 0
v -1820 -350 0
v -1820 -280 0
v -2170 -350 0
v -2240 -350 0
v -2310 -350 0
v -2380 -350 0
v -2450 -350 0
v -3080 -350 0
v -3150 -350 0
v -3150 -280 0
v -3080 -280 0
v -3220 -350 0
v -3220 -280 0
v -3290 -350 0
v -3290 -280 0
v -3920 -350 0
v -3990 -350 0
v -3990 -280 0
v -3920 -280 0
v -4060 -350 0
v -4060 -280 0
v -4130 -350 0
v -4130 -280 0
v -5180 -350 0
v -5250 -350 0
v -5320 -350 0
v -5390 -350 0
v -5460 -350 0
v -5530 -350 0
v -5810 -350 0
v -5880 -350 0
v -5950 -350 0
v -6020 -350 0
v -6090 -350 0
v -6510 -350 0
v -6580 -350 0
v -6650 -350 0
v -6720 -350 0
v 0 -420 0
v -70 -420 0
v -140 -420 0
v -210 -420 0
v -420 -420 0
v -490 -420 0
v -560 -420 0
v -630 -420 0
v -700 -420 0
v -840 -420 0
v -910 -420 0
v -980 -420 0
v -1050 -420 0
v -1120 -420 0
v -1190 -420 0
v -1470 -420 0
v -1540 -420 0
v -1610 -420 0
v -1680 -420 0
v -1750 -420 0
v -1820 -420 0
v -2240 -420 0
v -2310 -420 0
v -2380 -420 0
v -3430 -420 0
v -3500 -420 0
v -3500 -350 0
v -3430 -350 0
v -3570 -420 0
v -3570 -350 0
v -3640 -420 0
v -3640 -350 0
v -3850 -420 0
v -3920 -420 0
v -3850 -350 0
v -3990 -420 0
v -4060 -420 0
v -4130 -420 0
v -4200 -420 0
v -4200 -350 0
v -5250 -420 0
v -5320 -420 0
v -5390 -420 0
v -5460 -420 0
v -5880 -420 0
v -5950 -420 0
v -6020 -420 0
v -6580 -420 0
v -6650 -420 0
v -6720 -420 0
v 0 -490 0
v -70 -490 0
v -140 -490 0
v -490 -490 0
v -560 -490 0
v -630 -490 0
v -910 -490 0
v -980 -490 0
v -1050 -490 0
v -1120 -490 0
v -1540 -490 0
v -1610 -490 0
v -1680 -490 0
v -1750 -490 0
v -2240 -490 0
v -2310 -490 0
v -2380 -490 0
v -3780 -490 0
v -3850 -490 0
v -3780 -420 0
v -3920 -490 0
v -3990 -490 0
v -4060 -490 0
v -4130 -490 0
v -4200 -490 0
v -4270 -490 0
v -4270 -420 0
v -4340 -490 0
v -4340 -420 0
v -4410 -490 0
v -4410 -420 0
v -4480 -490 0
v -4480 -420 0
v -4550 -490 0
v -4550 -420 0
v -4620 -490 0
v -4620 -420 0
v -4690 -490 0
v -4690 -420 0
v -4760 -490 0
v -4760 -420 0
v -4830 -490 0
v -4830 -420 0
v -4900 -490 0
v -4900 -420 0
v -4970 -490 0
v -4970 -420 0
v -5040 -490 0
v -5040 -420 0
v -5320 -490 0
v -5390 -490 0
v -6650 -490 0
v -6720 -490 0
v 0 -560 0
v -70 -560 0
v -980 -560 0
v -1050 -560 0
v -1610 -560 0
v -1680 -560 0
v -3710 -560 0
v -3780 -560 0
v -3710 -490 0
v -3850 -560 0
v -3920 -560 0
v -3990 -560 0
v -4060 -560 0
v -4130 -560 0
v -4200 -560 0
v -4270 -560 0
v -4340 -560 0
v -4410 -560 0
v -4480 -560 0
v -4550 -560 0
v -4620 -560 0
v -4690 -560 0
v -4760 -560 0
v -4830 -560 0
v -4900 -560 0
v -4970 -560 0
v -5040 -560 0
v -140 -70 0
v -210 -70 0
v -210 0 0
v -140 0 0
v -280 -70 0
v -280 0 0
v -700 -70 0
v -770 -70 0
v -770 0 0
v -700 0 0
v -980 -70 0
v -1050 -70 0
v -1050 0 0
v -980 0 0
v -1120 -70 0
v -1120 0 0
v -2240 -70 0
v -2310 -70 0
v -2310 0 0
v -2240 0 0
v -2380 -70 0
v -2380 0 0
v -6020 -70 0
v -6090 -70 0
v -6090 0 0
v -6020 0 0
v -6160 -70 0
v -6160 0 0
v -2730 -140 0
v -2800 -140 0
v -2800 -70 0
v -2730 -70 0
v -5320 -140 0
v -5390 -140 0
v -5390 -70 0
v -5320 -70 0
v -5460 -140 0
v -5460 -70 0
v -5810 -70 0
v -5740 -70 0
v -1750 -210 0
v -1820 -210 0
v -1820 -140 0
v -1750 -140 0
v -1960 -210 0
v -2030 -210 0
v -2030 -140 0
v -1960 -140 0
v -3080 -210 0
v -3150 -210 0
v -3150 -140 0
v -3080 -140 0
v -3850 -210 0
v -3920 -210 0
v -3920 -140 0
v -3850 -140 0
v -3990 -210 0
v -4060 -210 0
v -4060 -140 0
v -3990 -140 0
v -5250 -140 0
v -5180 -140 0
v -4900 -350 0
v -4970 -350 0
v -4970 -280 0
v -4900 -280 0
v -5040 -350 0
v -5040 -280 0
v -4340 -350 0
v -4270 -350 0
v -4410 -350 0
v -1260 -70 0
v -1330 -70 0
v -1330 0 0
v -1260 0 0
v -1890 -70 0
v -1960 -70 0
v -1960 0 0
v -1890 0 0
v -6650 0 0
v -6580 0 0
v -6720 0 0
v -910 -70 0
v -2170 -70 0
v -5950 -70 0
v -5880 -70 0
v -2870 -140 0
v -1680 -210 0
v -1610 -210 0
v -3220 -210 0
v -3570 -280 0
v -3500 -280 0
v -4830 -350 0

# Texture Coorindates (Count = 56)
vt 0.0001220703 0.5899658
vt 0.1365967 0.5899658
vt 0.1365967 0.7264404
vt 0.0001220703 0.7264404
vt 0.4102783 0.5899658
vt 0.5467529 0.5899658
vt 0.5467529 0.7264404
vt 0.4102783 0.7264404
vt 0.2735596 0.5899658
vt 0.4100342 0.5899658
vt 0.4100342 0.7264404
vt 0.2735596 0.7264404
vt 0.1368408 0.5899658
vt 0.2733154 0.5899658
vt 0.2733154 0.7264404
vt 0.1368408 0.7264404
vt 0.2735596 0.3165283
vt 0.4100342 0.3165283
vt 0.4100342 0.4530029
vt 0.2735596 0.4530029
vt 0.1368408 0.4532471
vt 0.2733154 0.4532471
vt 0.2733154 0.5897217
vt 0.1368408 0.5897217
vt 0.1368408 0.7266846
vt 0.2733154 0.7266846
vt 0.2733154 0.8631592
vt 0.1368408 0.8631592
vt 0.6837158 0.1798096
vt 0.8201904 0.1798096
vt 0.8201904 0.3162842
vt 0.6837158 0.3162842
vt 0.8204346 0.1798096
vt 0.9569092 0.1798096
vt 0.9569092 0.3162842
vt 0.8204346 0.3162842
vt 0.6837158 0.4532471
vt 0.8201904 0.4532471
vt 0.8201904 0.5897217
vt 0.6837158 0.5897217
vt 0.4102783 0.8634033
vt 0.5467529 0.8634033
vt 0.5467529 0.9998779
vt 0.4102783 0.9998779
vt 0.4102783 0.7266846
vt 0.5467529 0.7266846
vt 0.5467529 0.8631592
vt 0.4102783 0.8631592
vt 0.0001220703 0.8634033
vt 0.1365967 0.8634033
vt 0.1365967 0.9998779
vt 0.0001220703 0.9998779
vt 0.6837158 0.7266846
vt 0.8201904 0.7266846
vt 0.8201904 0.8631592
vt 0.6837158 0.8631592

# Normal
vn 0 0 -1

# Groups (Count = 3)
g mesh_[00]_[00]
f  1/1/1  2/2/1  3/3/1  4/4/1 
f  2/1/1  5/2/1  6/3/1  3/4/1 
f  5/1/1  7/2/1  8/3/1  6/4/1 
f  7/1/1  9/2/1  10/3/1  8/4/1 
f  9/1/1  11/2/1  12/3/1  10/4/1 
f  13/5/1  14/6/1  15/7/1  16/8/1 
f  14/5/1  17/6/1  18/7/1  15/8/1 
f  17/5/1  19/6/1  20/7/1  18/8/1 
f  19/5/1  21/6/1  22/7/1  20/8/1 
f  21/5/1  23/6/1  24/7/1  22/8/1 
f  25/5/1  26/6/1  27/7/1  28/8/1 
f  26/5/1  29/6/1  30/7/1  27/8/1 
f  29/5/1  31/6/1  32/7/1  30/8/1 
f  31/5/1  33/6/1  34/7/1  32/8/1 
f  33/5/1  35/6/1  36/7/1  34/8/1 
f  35/5/1  37/6/1  38/7/1  36/8/1 
f  37/5/1  39/6/1  40/7/1  38/8/1 
f  39/5/1  41/6/1  42/7/1  40/8/1 
f  41/5/1  43/6/1  44/7/1  42/8/1 
f  45/1/1  46/2/1  47/3/1  48/4/1 
f  46/1/1  49/2/1  50/3/1  47/4/1 
f  49/1/1  51/2/1  52/3/1  50/4/1 
f  51/1/1  53/2/1  54/3/1  52/4/1 
f  53/1/1  55/2/1  56/3/1  54/4/1 
f  55/1/1  57/2/1  58/3/1  56/4/1 
f  59/1/1  60/2/1  61/3/1  62/4/1 
f  60/1/1  63/2/1  64/3/1  61/4/1 
f  63/1/1  65/2/1  66/3/1  64/4/1 
f  65/1/1  67/2/1  68/3/1  66/4/1 
f  67/1/1  69/2/1  70/3/1  68/4/1 
f  69/1/1  71/2/1  72/3/1  70/4/1 
f  73/9/1  74/10/1  2/11/1  1/12/1 
f  74/9/1  75/10/1  5/11/1  2/12/1 
f  75/9/1  76/10/1  7/11/1  5/12/1 
f  76/9/1  77/10/1  9/11/1  7/12/1 
f  77/9/1  78/10/1  11/11/1  9/12/1 
f  79/13/1  80/14/1  14/15/1  13/16/1 
f  80/13/1  81/14/1  17/15/1  14/16/1 
f  81/13/1  82/14/1  19/15/1  17/16/1 
f  82/13/1  83/14/1  21/15/1  19/16/1 
f  83/13/1  84/14/1  23/15/1  21/16/1 
f  85/17/1  86/18/1  87/19/1  88/20/1 
f  86/17/1  89/18/1  90/19/1  87/20/1 
f  89/17/1  91/18/1  92/19/1  90/20/1 
f  91/17/1  93/18/1  25/19/1  92/20/1 
f  94/13/1  95/14/1  29/15/1  26/16/1 
f  95/13/1  96/14/1  31/15/1  29/16/1 
f  96/13/1  97/14/1  33/15/1  31/16/1 
f  97/13/1  98/14/1  35/15/1  33/16/1 
f  98/13/1  99/14/1  37/15/1  35/16/1 
f  99/13/1  100/14/1  39/15/1  37/16/1 
f  100/13/1  101/14/1  41/15/1  39/16/1 
f  102/9/1  103/10/1  46/11/1  45/12/1 
f  103/9/1  104/10/1  49/11/1  46/12/1 
f  104/9/1  105/10/1  51/11/1  49/12/1 
f  105/9/1  106/10/1  53/11/1  51/12/1 
f  106/9/1  107/10/1  55/11/1  53/12/1 
f  107/9/1  108/10/1  57/11/1  55/12/1 
f  109/1/1  110/2/1  111/3/1  112/4/1 
f  110/1/1  113/2/1  114/3/1  111/4/1 
f  113/1/1  115/2/1  116/3/1  114/4/1 
f  117/1/1  118/2/1  119/3/1  120/4/1 
f  118/1/1  121/2/1  122/3/1  119/4/1 
f  121/1/1  123/2/1  124/3/1  122/4/1 
f  123/1/1  125/2/1  126/3/1  124/4/1 
f  125/1/1  127/2/1  128/3/1  126/4/1 
f  129/9/1  130/10/1  60/11/1  59/12/1 
f  130/9/1  131/10/1  63/11/1  60/12/1 
f  131/9/1  132/10/1  65/11/1  63/12/1 
f  132/9/1  133/10/1  67/11/1  65/12/1 
f  133/9/1  134/10/1  69/11/1  67/12/1 
f  134/9/1  135/10/1  71/11/1  69/12/1 
f  136/9/1  137/10/1  75/11/1  74/12/1 
f  137/9/1  138/10/1  76/11/1  75/12/1 
f  138/9/1  139/10/1  77/11/1  76/12/1 
f  139/9/1  140/10/1  78/11/1  77/12/1 
f  141/13/1  142/14/1  80/15/1  79/16/1 
f  142/13/1  143/14/1  81/15/1  80/16/1 
f  143/13/1  144/14/1  82/15/1  81/16/1 
f  144/13/1  145/14/1  83/15/1  82/16/1 
f  146/9/1  147/10/1  86/11/1  85/12/1 
f  147/9/1  148/10/1  89/11/1  86/12/1 
f  148/9/1  149/10/1  91/11/1  89/12/1 
f  149/9/1  150/10/1  93/11/1  91/12/1 
f  151/13/1  152/14/1  96/15/1  95/16/1 
f  152/13/1  153/14/1  97/15/1  96/16/1 
f  153/13/1  154/14/1  98/15/1  97/16/1 
f  154/13/1  155/14/1  99/15/1  98/16/1 
f  155/13/1  156/14/1  100/15/1  99/16/1 
f  157/5/1  158/6/1  159/7/1  160/8/1 
f  158/5/1  161/6/1  162/7/1  159/8/1 
f  161/5/1  163/6/1  164/7/1  162/8/1 
f  163/5/1  165/6/1  166/7/1  164/8/1 
f  165/5/1  167/6/1  168/7/1  166/8/1 
f  169/9/1  170/10/1  104/11/1  103/12/1 
f  170/9/1  171/10/1  105/11/1  104/12/1 
f  171/9/1  172/10/1  106/11/1  105/12/1 
f  172/9/1  173/10/1  107/11/1  106/12/1 
f  174/1/1  175/2/1  176/3/1  177/4/1 
f  175/1/1  178/2/1  179/3/1  176/4/1 
f  178/1/1  180/2/1  181/3/1  179/4/1 
f  182/1/1  183/2/1  184/3/1  185/4/1 
f  183/1/1  186/2/1  187/3/1  184/4/1 
f  186/1/1  188/2/1  189/3/1  187/4/1 
f  190/9/1  191/10/1  118/11/1  117/12/1 
f  191/9/1  192/10/1  121/11/1  118/12/1 
f  192/9/1  193/10/1  123/11/1  121/12/1 
f  193/9/1  194/10/1  125/11/1  123/12/1 
f  194/9/1  195/10/1  127/11/1  125/12/1 
f  196/9/1  197/10/1  131/11/1  130/12/1 
f  197/9/1  198/10/1  132/11/1  131/12/1 
f  198/9/1  199/10/1  133/11/1  132/12/1 
f  199/9/1  200/10/1  134/11/1  133/12/1 
f  201/9/1  202/10/1  138/11/1  137/12/1 
f  202/9/1  203/10/1  139/11/1  138/12/1 
f  203/9/1  204/10/1  140/11/1  139/12/1 
f  205/13/1  206/14/1  142/15/1  141/16/1 
f  206/13/1  207/14/1  143/15/1  142/16/1 
f  207/13/1  208/14/1  144/15/1  143/16/1 
f  209/9/1  210/10/1  147/11/1  146/12/1 
f  210/9/1  211/10/1  148/11/1  147/12/1 
f  211/9/1  212/10/1  149/11/1  148/12/1 
f  212/9/1  213/10/1  150/11/1  149/12/1 
f  214/13/1  215/14/1  152/15/1  151/16/1 
f  215/13/1  216/14/1  153/15/1  152/16/1 
f  216/13/1  217/14/1  154/15/1  153/16/1 
f  217/13/1  218/14/1  155/15/1  154/16/1 
f  218/13/1  219/14/1  156/15/1  155/16/1 
f  220/13/1  221/14/1  158/15/1  157/16/1 
f  221/13/1  222/14/1  161/15/1  158/16/1 
f  222/13/1  223/14/1  163/15/1  161/16/1 
f  223/13/1  224/14/1  165/15/1  163/16/1 
f  224/13/1  225/14/1  167/15/1  165/16/1 
f  226/9/1  227/10/1  171/11/1  170/12/1 
f  227/9/1  228/10/1  172/11/1  171/12/1 
f  229/1/1  230/2/1  231/3/1  232/4/1 
f  230/1/1  233/2/1  234/3/1  231/4/1 
f  233/1/1  235/2/1  236/3/1  234/4/1 
f  237/1/1  238/2/1  182/3/1  239/4/1 
f  238/9/1  240/10/1  183/11/1  182/12/1 
f  240/9/1  241/10/1  186/11/1  183/12/1 
f  241/9/1  242/10/1  188/11/1  186/12/1 
f  242/1/1  243/2/1  244/3/1  188/4/1 
f  245/9/1  246/10/1  192/11/1  191/12/1 
f  246/9/1  247/10/1  193/11/1  192/12/1 
f  247/9/1  248/10/1  194/11/1  193/12/1 
f  249/9/1  250/10/1  198/11/1  197/12/1 
f  250/9/1  251/10/1  199/11/1  198/12/1 
f  252/9/1  253/10/1  203/11/1  202/12/1 
f  253/9/1  254/10/1  204/11/1  203/12/1 
f  255/13/1  256/14/1  206/15/1  205/16/1 
f  256/13/1  257/14/1  207/15/1  206/16/1 
f  258/9/1  259/10/1  211/11/1  210/12/1 
f  259/9/1  260/10/1  212/11/1  211/12/1 
f  261/13/1  262/14/1  216/15/1  215/16/1 
f  262/13/1  263/14/1  217/15/1  216/16/1 
f  263/13/1  264/14/1  218/15/1  217/16/1 
f  265/13/1  266/14/1  222/15/1  221/16/1 
f  266/13/1  267/14/1  223/15/1  222/16/1 
f  267/13/1  268/14/1  224/15/1  223/16/1 
f  269/9/1  270/10/1  227/11/1  226/12/1 
f  270/9/1  271/10/1  228/11/1  227/12/1 
f  272/1/1  273/2/1  237/3/1  274/4/1 
f  273/9/1  275/10/1  238/11/1  237/12/1 
f  275/9/1  276/10/1  240/11/1  238/12/1 
f  276/9/1  277/10/1  241/11/1  240/12/1 
f  277/9/1  278/10/1  242/11/1  241/12/1 
f  278/9/1  279/10/1  243/11/1  242/12/1 
f  279/1/1  280/2/1  281/3/1  243/4/1 
f  280/21/1  282/22/1  283/23/1  281/24/1 
f  282/21/1  284/22/1  285/23/1  283/24/1 
f  284/21/1  286/22/1  287/23/1  285/24/1 
f  286/21/1  288/22/1  289/23/1  287/24/1 
f  288/21/1  290/22/1  291/23/1  289/24/1 
f  290/21/1  292/22/1  293/23/1  291/24/1 
f  292/21/1  294/22/1  295/23/1  293/24/1 
f  294/9/1  296/10/1  297/11/1  295/12/1 
f  296/9/1  298/10/1  299/11/1  297/12/1 
f  298/9/1  300/10/1  301/11/1  299/12/1 
f  300/9/1  302/10/1  303/11/1  301/12/1 
f  304/9/1  305/10/1  247/11/1  246/12/1 
f  306/9/1  307/10/1  254/11/1  253/12/1 
f  308/13/1  309/14/1  256/15/1  255/16/1 
f  310/13/1  311/14/1  263/15/1  262/16/1 
f  312/13/1  313/14/1  267/15/1  266/16/1 
f  314/1/1  315/2/1  272/3/1  316/4/1 
f  315/9/1  317/10/1  273/11/1  272/12/1 
f  317/9/1  318/10/1  275/11/1  273/12/1 
f  318/9/1  319/10/1  276/11/1  275/12/1 
f  319/9/1  320/10/1  277/11/1  276/12/1 
f  320/9/1  321/10/1  278/11/1  277/12/1 
f  321/9/1  322/10/1  279/11/1  278/12/1 
f  322/9/1  323/10/1  280/11/1  279/12/1 
f  323/9/1  324/10/1  282/11/1  280/12/1 
f  324/9/1  325/10/1  284/11/1  282/12/1 
f  325/9/1  326/10/1  286/11/1  284/12/1 
f  326/9/1  327/10/1  288/11/1  286/12/1 
f  327/9/1  328/10/1  290/11/1  288/12/1 
f  328/9/1  329/10/1  292/11/1  290/12/1 
f  329/9/1  330/10/1  294/11/1  292/12/1 
f  330/9/1  331/10/1  296/11/1  294/12/1 
f  331/9/1  332/10/1  298/11/1  296/12/1 
f  332/9/1  333/10/1  300/11/1  298/12/1 
f  333/9/1  334/10/1  302/11/1  300/12/1 
g mesh_[01]_[00]
f  335/25/1  336/26/1  337/27/1  338/28/1 
f  336/25/1  339/26/1  340/27/1  337/28/1 
f  341/29/1  342/30/1  343/31/1  344/32/1 
f  345/25/1  346/26/1  347/27/1  348/28/1 
f  346/25/1  349/26/1  350/27/1  347/28/1 
f  351/25/1  352/26/1  353/27/1  354/28/1 
f  352/25/1  355/26/1  356/27/1  353/28/1 
f  357/25/1  358/26/1  359/27/1  360/28/1 
f  358/25/1  361/26/1  362/27/1  359/28/1 
f  52/33/1  54/34/1  355/35/1  352/36/1 
f  363/29/1  364/30/1  365/31/1  366/32/1 
f  367/25/1  368/26/1  369/27/1  370/28/1 
f  368/25/1  371/26/1  372/27/1  369/28/1 
f  62/33/1  61/34/1  373/35/1  374/36/1 
f  375/29/1  376/30/1  377/31/1  378/32/1 
f  379/37/1  380/38/1  381/39/1  382/40/1 
f  380/37/1  45/38/1  48/39/1  381/40/1 
f  383/29/1  384/30/1  385/31/1  386/32/1 
f  387/29/1  388/30/1  389/31/1  390/32/1 
f  391/25/1  392/26/1  393/27/1  394/28/1 
f  120/33/1  119/34/1  395/35/1  396/36/1 
f  397/25/1  398/26/1  399/27/1  400/28/1 
f  398/25/1  401/26/1  402/27/1  399/28/1 
f  281/41/1  283/42/1  403/43/1  404/44/1 
f  283/41/1  285/42/1  405/43/1  403/44/1 
g mesh_[02]_[00]
f  406/29/1  407/30/1  408/31/1  409/32/1 
f  410/29/1  411/30/1  412/31/1  413/32/1 
f  8/45/1  10/46/1  414/47/1  415/48/1 
f  10/49/1  12/50/1  416/51/1  414/52/1 
f  20/53/1  22/54/1  339/55/1  336/56/1 
f  32/53/1  34/54/1  345/55/1  417/56/1 
f  34/53/1  36/54/1  346/55/1  345/56/1 
f  36/53/1  38/54/1  349/55/1  346/56/1 
f  47/49/1  50/50/1  351/51/1  418/52/1 
f  64/49/1  66/50/1  419/51/1  420/52/1 
f  66/49/1  68/50/1  357/51/1  419/52/1 
f  111/49/1  114/50/1  421/51/1  364/52/1 
f  122/49/1  124/50/1  368/51/1  367/52/1 
f  162/53/1  164/54/1  422/55/1  423/56/1 
f  176/49/1  179/50/1  424/51/1  384/52/1 
f  184/49/1  187/50/1  392/51/1  391/52/1 
f  231/49/1  234/50/1  425/51/1  426/52/1 
f  297/49/1  299/50/1  397/51/1  427/52/1 
