# Wavefront OBJ file automatically generated by Tiled2Unity

# Vertices (Count = 405)
v -2240 -210 0
v -2310 -210 0
v -2310 -140 0
v -2240 -140 0
v -2380 -210 0
v -2380 -140 0
v -2450 -210 0
v -2450 -140 0
v -2520 -210 0
v -2520 -140 0
v -2590 -210 0
v -2590 -140 0
v -2660 -210 0
v -2660 -140 0
v -2730 -210 0
v -2730 -140 0
v -2800 -210 0
v -2800 -140 0
v -910 -280 0
v -980 -280 0
v -980 -210 0
v -910 -210 0
v -1050 -280 0
v -1050 -210 0
v -1120 -280 0
v -1120 -210 0
v -1190 -280 0
v -1190 -210 0
v -1260 -280 0
v -1260 -210 0
v -1330 -280 0
v -1330 -210 0
v -2170 -280 0
v -2240 -280 0
v -2170 -210 0
v -2310 -280 0
v -2730 -280 0
v -2800 -280 0
v -2870 -280 0
v -2870 -210 0
v -4550 -280 0
v -4620 -280 0
v -4620 -210 0
v -4550 -210 0
v -4690 -280 0
v -4690 -210 0
v -4760 -280 0
v -4760 -210 0
v -4830 -280 0
v -4830 -210 0
v -4900 -280 0
v -4900 -210 0
v -910 -350 0
v -980 -350 0
v -1050 -350 0
v -1120 -350 0
v -1190 -350 0
v -1260 -350 0
v -1330 -350 0
v -2100 -350 0
v -2170 -350 0
v -2100 -280 0
v -2240 -350 0
v -2310 -350 0
v -2730 -350 0
v -2800 -350 0
v -2870 -350 0
v -2940 -350 0
v -2940 -280 0
v -4270 -350 0
v -4340 -350 0
v -4340 -280 0
v -4270 -280 0
v -4410 -350 0
v -4410 -280 0
v -4480 -350 0
v -4480 -280 0
v -4550 -350 0
v -4620 -350 0
v -4830 -350 0
v -4900 -350 0
v -4970 -350 0
v -4970 -280 0
v -5040 -350 0
v -5040 -280 0
v -1960 -420 0
v -2030 -420 0
v -2030 -350 0
v -1960 -350 0
v -2100 -420 0
v -2170 -420 0
v -2240 -420 0
v -2310 -420 0
v -2730 -420 0
v -2800 -420 0
v -2870 -420 0
v -2940 -420 0
v -3010 -420 0
v -3010 -350 0
v -3080 -420 0
v -3080 -350 0
v -4060 -420 0
v -4130 -420 0
v -4130 -350 0
v -4060 -350 0
v -4200 -420 0
v -4200 -350 0
v -4270 -420 0
v -4340 -420 0
v -4410 -420 0
v -4480 -420 0
v -4550 -420 0
v -4620 -420 0
v -4830 -420 0
v -4900 -420 0
v -4970 -420 0
v -5040 -420 0
v -1960 -490 0
v -2030 -490 0
v -2100 -490 0
v -2170 -490 0
v -2240 -490 0
v -2310 -490 0
v -2730 -490 0
v -2800 -490 0
v -2870 -490 0
v -2940 -490 0
v -3010 -490 0
v -3080 -490 0
v -3920 -490 0
v -3990 -490 0
v -3990 -420 0
v -3920 -420 0
v -4060 -490 0
v -4130 -490 0
v -4200 -490 0
v -4270 -490 0
v -4340 -490 0
v -4410 -490 0
v -4480 -490 0
v -4830 -490 0
v -4900 -490 0
v -4970 -490 0
v -5040 -490 0
v -5110 -490 0
v -5110 -420 0
v 0 -560 0
v -70 -560 0
v -70 -490 0
v 0 -490 0
v -140 -560 0
v -140 -490 0
v -210 -560 0
v -210 -490 0
v -280 -560 0
v -280 -490 0
v -350 -560 0
v -350 -490 0
v -420 -560 0
v -420 -490 0
v -490 -560 0
v -490 -490 0
v -560 -560 0
v -560 -490 0
v -630 -560 0
v -630 -490 0
v -700 -560 0
v -700 -490 0
v -770 -560 0
v -770 -490 0
v -1470 -560 0
v -1540 -560 0
v -1540 -490 0
v -1470 -490 0
v -1610 -560 0
v -1610 -490 0
v -1680 -560 0
v -1680 -490 0
v -1750 -560 0
v -1750 -490 0
v -1820 -560 0
v -1820 -490 0
v -1890 -560 0
v -1890 -490 0
v -1960 -560 0
v -2030 -560 0
v -2100 -560 0
v -2170 -560 0
v -2240 -560 0
v -2310 -560 0
v -2380 -560 0
v -2380 -490 0
v -2450 -560 0
v -2450 -490 0
v -2520 -560 0
v -2520 -490 0
v -2590 -560 0
v -2590 -490 0
v -2660 -560 0
v -2660 -490 0
v -2730 -560 0
v -2800 -560 0
v -2870 -560 0
v -2940 -560 0
v -3010 -560 0
v -3080 -560 0
v -3150 -560 0
v -3150 -490 0
v -3220 -560 0
v -3220 -490 0
v -3290 -560 0
v -3290 -490 0
v -3360 -560 0
v -3360 -490 0
v -3430 -560 0
v -3430 -490 0
v -3500 -560 0
v -3500 -490 0
v -3570 -560 0
v -3570 -490 0
v -3640 -560 0
v -3640 -490 0
v -3710 -560 0
v -3710 -490 0
v -3780 -560 0
v -3780 -490 0
v -3850 -560 0
v -3850 -490 0
v -3920 -560 0
v -3990 -560 0
v -4060 -560 0
v -4130 -560 0
v -4200 -560 0
v -4270 -560 0
v -4340 -560 0
v -4410 -560 0
v -4480 -560 0
v -4550 -560 0
v -4550 -490 0
v -4620 -560 0
v -4620 -490 0
v -4690 -560 0
v -4690 -490 0
v -4760 -560 0
v -4760 -490 0
v -4830 -560 0
v -4900 -560 0
v -4970 -560 0
v -5040 -560 0
v -5110 -560 0
v -5180 -560 0
v -5180 -490 0
v -5250 -560 0
v -5250 -490 0
v -5320 -560 0
v -5320 -490 0
v -5390 -560 0
v -5390 -490 0
v -5460 -560 0
v -5460 -490 0
v -5530 -560 0
v -5530 -490 0
v -5600 -560 0
v -5600 -490 0
v -5670 -560 0
v -5670 -490 0
v -5740 -560 0
v -5740 -490 0
v -5810 -560 0
v -5810 -490 0
v -5880 -560 0
v -5880 -490 0
v -5950 -560 0
v -5950 -490 0
v -6020 -560 0
v -6020 -490 0
v -6090 -560 0
v -6090 -490 0
v -6160 -560 0
v -6160 -490 0
v -6230 -560 0
v -6230 -490 0
v -6300 -560 0
v -6300 -490 0
v -6370 -560 0
v -6370 -490 0
v -6440 -560 0
v -6440 -490 0
v -6510 -560 0
v -6510 -490 0
v -6580 -560 0
v -6580 -490 0
v -6650 -560 0
v -6650 -490 0
v -6720 -560 0
v -6720 -490 0
v -2380 -70 0
v -2450 -70 0
v -2450 0 0
v -2380 0 0
v -2520 -70 0
v -2520 0 0
v -2590 -70 0
v -2590 0 0
v -2660 -70 0
v -2660 0 0
v -910 -140 0
v -980 -140 0
v -980 -70 0
v -910 -70 0
v -1120 -140 0
v -1190 -140 0
v -1190 -70 0
v -1120 -70 0
v -1260 -140 0
v -1330 -140 0
v -1330 -70 0
v -1260 -70 0
v -2310 -70 0
v -4340 -140 0
v -4410 -140 0
v -4410 -70 0
v -4340 -70 0
v -4830 -140 0
v -4900 -140 0
v -4900 -70 0
v -4830 -70 0
v -1960 -210 0
v -2030 -210 0
v -2030 -140 0
v -1960 -140 0
v -2100 -210 0
v -2100 -140 0
v -4620 -140 0
v -4550 -140 0
v -3570 -280 0
v -3640 -280 0
v -3640 -210 0
v -3570 -210 0
v -3710 -280 0
v -3710 -210 0
v -5740 -280 0
v -5810 -280 0
v -5810 -210 0
v -5740 -210 0
v -5880 -280 0
v -5880 -210 0
v -3150 -350 0
v -3220 -350 0
v -3220 -280 0
v -3150 -280 0
v -3570 -350 0
v -3640 -350 0
v -3710 -350 0
v -4690 -350 0
v -4760 -350 0
v -5530 -350 0
v -5600 -350 0
v -5600 -280 0
v -5530 -280 0
v -6370 -350 0
v -6440 -350 0
v -6440 -280 0
v -6370 -280 0
v -840 -420 0
v -910 -420 0
v -840 -350 0
v -1050 -420 0
v -1120 -420 0
v -1190 -420 0
v -4690 -420 0
v -4760 -420 0
v -630 -420 0
v -560 -420 0
v -1750 -420 0
v -1680 -420 0
v -3570 -420 0
v -3500 -420 0
v -5390 -420 0
v -5320 -420 0
v -6020 -420 0
v -5950 -420 0
v -6650 -420 0
v -6580 -420 0
v -2240 -70 0
v -2800 -70 0
v -2730 -70 0
v -770 -420 0
v -700 -420 0
v -1050 -490 0
v -1120 -490 0
v -1190 -490 0
v -1540 -420 0
v -1470 -420 0
v -3430 -420 0
v -3360 -420 0
v -5880 -420 0
v -5810 -420 0
v -980 -560 0
v -1050 -560 0
v -980 -490 0
v -1120 -560 0
v -1190 -560 0
v -1260 -560 0
v -1260 -490 0

# Texture Coorindates (Count = 60)
vt 0.0001220703 0.5899658
vt 0.1365967 0.5899658
vt 0.1365967 0.7264404
vt 0.0001220703 0.7264404
vt 0.5469971 0.1798096
vt 0.6834717 0.1798096
vt 0.6834717 0.3162842
vt 0.5469971 0.3162842
vt 0.2735596 0.5899658
vt 0.4100342 0.5899658
vt 0.4100342 0.7264404
vt 0.2735596 0.7264404
vt 0.1368408 0.7266846
vt 0.2733154 0.7266846
vt 0.2733154 0.8631592
vt 0.1368408 0.8631592
vt 0.5469971 0.5899658
vt 0.6834717 0.5899658
vt 0.6834717 0.7264404
vt 0.5469971 0.7264404
vt 0.6837158 0.1798096
vt 0.8201904 0.1798096
vt 0.8201904 0.3162842
vt 0.6837158 0.3162842
vt 0.4102783 0.8634033
vt 0.5467529 0.8634033
vt 0.5467529 0.9998779
vt 0.4102783 0.9998779
vt 0.2735596 0.8634033
vt 0.4100342 0.8634033
vt 0.4100342 0.9998779
vt 0.2735596 0.9998779
vt 0.8204346 0.1798096
vt 0.9569092 0.1798096
vt 0.9569092 0.3162842
vt 0.8204346 0.3162842
vt 0.6837158 0.4532471
vt 0.8201904 0.4532471
vt 0.8201904 0.5897217
vt 0.6837158 0.5897217
vt 0.4102783 0.3165283
vt 0.5467529 0.3165283
vt 0.5467529 0.4530029
vt 0.4102783 0.4530029
vt 0.1368408 0.3165283
vt 0.2733154 0.3165283
vt 0.2733154 0.4530029
vt 0.1368408 0.4530029
vt 0.4102783 0.7266846
vt 0.5467529 0.7266846
vt 0.5467529 0.8631592
vt 0.4102783 0.8631592
vt 0.0001220703 0.8634033
vt 0.1365967 0.8634033
vt 0.1365967 0.9998779
vt 0.0001220703 0.9998779
vt 0.0001220703 0.3165283
vt 0.1365967 0.3165283
vt 0.1365967 0.4530029
vt 0.0001220703 0.4530029

# Normal
vn 0 0 -1

# Groups (Count = 3)
g mesh_[00]_[00]
f  1/1/1  2/2/1  3/3/1  4/4/1 
f  2/5/1  5/6/1  6/7/1  3/8/1 
f  5/5/1  7/6/1  8/7/1  6/8/1 
f  7/5/1  9/6/1  10/7/1  8/8/1 
f  9/5/1  11/6/1  12/7/1  10/8/1 
f  11/5/1  13/6/1  14/7/1  12/8/1 
f  13/5/1  15/6/1  16/7/1  14/8/1 
f  15/1/1  17/2/1  18/3/1  16/4/1 
f  19/1/1  20/2/1  21/3/1  22/4/1 
f  20/5/1  23/6/1  24/7/1  21/8/1 
f  23/5/1  25/6/1  26/7/1  24/8/1 
f  25/5/1  27/6/1  28/7/1  26/8/1 
f  27/5/1  29/6/1  30/7/1  28/8/1 
f  29/1/1  31/2/1  32/3/1  30/4/1 
f  33/1/1  34/2/1  1/3/1  35/4/1 
f  34/9/1  36/10/1  2/11/1  1/12/1 
f  37/9/1  38/10/1  17/11/1  15/12/1 
f  38/1/1  39/2/1  40/3/1  17/4/1 
f  41/1/1  42/2/1  43/3/1  44/4/1 
f  42/1/1  45/2/1  46/3/1  43/4/1 
f  45/1/1  47/2/1  48/3/1  46/4/1 
f  47/1/1  49/2/1  50/3/1  48/4/1 
f  49/1/1  51/2/1  52/3/1  50/4/1 
f  53/9/1  54/10/1  20/11/1  19/12/1 
f  54/9/1  55/10/1  23/11/1  20/12/1 
f  55/9/1  56/10/1  25/11/1  23/12/1 
f  56/9/1  57/10/1  27/11/1  25/12/1 
f  57/9/1  58/10/1  29/11/1  27/12/1 
f  58/9/1  59/10/1  31/11/1  29/12/1 
f  60/1/1  61/2/1  33/3/1  62/4/1 
f  61/9/1  63/10/1  34/11/1  33/12/1 
f  63/9/1  64/10/1  36/11/1  34/12/1 
f  65/9/1  66/10/1  38/11/1  37/12/1 
f  66/9/1  67/10/1  39/11/1  38/12/1 
f  67/1/1  68/2/1  69/3/1  39/4/1 
f  70/1/1  71/2/1  72/3/1  73/4/1 
f  71/1/1  74/2/1  75/3/1  72/4/1 
f  74/1/1  76/2/1  77/3/1  75/4/1 
f  78/9/1  79/10/1  42/11/1  41/12/1 
f  80/9/1  81/10/1  51/11/1  49/12/1 
f  81/1/1  82/2/1  83/3/1  51/4/1 
f  82/1/1  84/2/1  85/3/1  83/4/1 
f  86/1/1  87/2/1  88/3/1  89/4/1 
f  87/1/1  90/2/1  60/3/1  88/4/1 
f  90/9/1  91/10/1  61/11/1  60/12/1 
f  91/9/1  92/10/1  63/11/1  61/12/1 
f  92/9/1  93/10/1  64/11/1  63/12/1 
f  94/9/1  95/10/1  66/11/1  65/12/1 
f  95/9/1  96/10/1  67/11/1  66/12/1 
f  96/9/1  97/10/1  68/11/1  67/12/1 
f  97/1/1  98/2/1  99/3/1  68/4/1 
f  98/1/1  100/2/1  101/3/1  99/4/1 
f  102/1/1  103/2/1  104/3/1  105/4/1 
f  103/1/1  106/2/1  107/3/1  104/4/1 
f  106/1/1  108/2/1  70/3/1  107/4/1 
f  108/9/1  109/10/1  71/11/1  70/12/1 
f  109/9/1  110/10/1  74/11/1  71/12/1 
f  110/9/1  111/10/1  76/11/1  74/12/1 
f  112/9/1  113/10/1  79/11/1  78/12/1 
f  114/9/1  115/10/1  81/11/1  80/12/1 
f  115/9/1  116/10/1  82/11/1  81/12/1 
f  116/9/1  117/10/1  84/11/1  82/12/1 
f  118/9/1  119/10/1  87/11/1  86/12/1 
f  119/9/1  120/10/1  90/11/1  87/12/1 
f  120/9/1  121/10/1  91/11/1  90/12/1 
f  121/9/1  122/10/1  92/11/1  91/12/1 
f  122/9/1  123/10/1  93/11/1  92/12/1 
f  124/9/1  125/10/1  95/11/1  94/12/1 
f  125/9/1  126/10/1  96/11/1  95/12/1 
f  126/9/1  127/10/1  97/11/1  96/12/1 
f  127/9/1  128/10/1  98/11/1  97/12/1 
f  128/9/1  129/10/1  100/11/1  98/12/1 
f  130/1/1  131/2/1  132/3/1  133/4/1 
f  131/1/1  134/2/1  102/3/1  132/4/1 
f  134/9/1  135/10/1  103/11/1  102/12/1 
f  135/9/1  136/10/1  106/11/1  103/12/1 
f  136/9/1  137/10/1  108/11/1  106/12/1 
f  137/9/1  138/10/1  109/11/1  108/12/1 
f  138/9/1  139/10/1  110/11/1  109/12/1 
f  139/9/1  140/10/1  111/11/1  110/12/1 
f  141/9/1  142/10/1  115/11/1  114/12/1 
f  142/9/1  143/10/1  116/11/1  115/12/1 
f  143/9/1  144/10/1  117/11/1  116/12/1 
f  144/1/1  145/2/1  146/3/1  117/4/1 
f  147/1/1  148/2/1  149/3/1  150/4/1 
f  148/1/1  151/2/1  152/3/1  149/4/1 
f  151/1/1  153/2/1  154/3/1  152/4/1 
f  153/1/1  155/2/1  156/3/1  154/4/1 
f  155/1/1  157/2/1  158/3/1  156/4/1 
f  157/1/1  159/2/1  160/3/1  158/4/1 
f  159/1/1  161/2/1  162/3/1  160/4/1 
f  161/1/1  163/2/1  164/3/1  162/4/1 
f  163/1/1  165/2/1  166/3/1  164/4/1 
f  165/1/1  167/2/1  168/3/1  166/4/1 
f  167/1/1  169/2/1  170/3/1  168/4/1 
f  171/1/1  172/2/1  173/3/1  174/4/1 
f  172/1/1  175/2/1  176/3/1  173/4/1 
f  175/1/1  177/2/1  178/3/1  176/4/1 
f  177/1/1  179/2/1  180/3/1  178/4/1 
f  179/1/1  181/2/1  182/3/1  180/4/1 
f  181/1/1  183/2/1  184/3/1  182/4/1 
f  183/1/1  185/2/1  118/3/1  184/4/1 
f  185/9/1  186/10/1  119/11/1  118/12/1 
f  186/9/1  187/10/1  120/11/1  119/12/1 
f  187/9/1  188/10/1  121/11/1  120/12/1 
f  188/9/1  189/10/1  122/11/1  121/12/1 
f  189/9/1  190/10/1  123/11/1  122/12/1 
f  190/9/1  191/10/1  192/11/1  123/12/1 
f  191/9/1  193/10/1  194/11/1  192/12/1 
f  193/9/1  195/10/1  196/11/1  194/12/1 
f  195/9/1  197/10/1  198/11/1  196/12/1 
f  197/9/1  199/10/1  200/11/1  198/12/1 
f  199/9/1  201/10/1  124/11/1  200/12/1 
f  201/9/1  202/10/1  125/11/1  124/12/1 
f  202/9/1  203/10/1  126/11/1  125/12/1 
f  203/9/1  204/10/1  127/11/1  126/12/1 
f  204/9/1  205/10/1  128/11/1  127/12/1 
f  205/9/1  206/10/1  129/11/1  128/12/1 
f  206/1/1  207/2/1  208/3/1  129/4/1 
f  207/1/1  209/2/1  210/3/1  208/4/1 
f  209/1/1  211/2/1  212/3/1  210/4/1 
f  211/1/1  213/2/1  214/3/1  212/4/1 
f  213/1/1  215/2/1  216/3/1  214/4/1 
f  215/1/1  217/2/1  218/3/1  216/4/1 
f  217/1/1  219/2/1  220/3/1  218/4/1 
f  219/1/1  221/2/1  222/3/1  220/4/1 
f  221/1/1  223/2/1  224/3/1  222/4/1 
f  223/1/1  225/2/1  226/3/1  224/4/1 
f  225/1/1  227/2/1  228/3/1  226/4/1 
f  227/1/1  229/2/1  130/3/1  228/4/1 
f  229/9/1  230/10/1  131/11/1  130/12/1 
f  230/9/1  231/10/1  134/11/1  131/12/1 
f  231/9/1  232/10/1  135/11/1  134/12/1 
f  232/9/1  233/10/1  136/11/1  135/12/1 
f  233/9/1  234/10/1  137/11/1  136/12/1 
f  234/9/1  235/10/1  138/11/1  137/12/1 
f  235/9/1  236/10/1  139/11/1  138/12/1 
f  236/9/1  237/10/1  140/11/1  139/12/1 
f  237/9/1  238/10/1  239/11/1  140/12/1 
f  238/9/1  240/10/1  241/11/1  239/12/1 
f  240/9/1  242/10/1  243/11/1  241/12/1 
f  242/9/1  244/10/1  245/11/1  243/12/1 
f  244/9/1  246/10/1  141/11/1  245/12/1 
f  246/9/1  247/10/1  142/11/1  141/12/1 
f  247/9/1  248/10/1  143/11/1  142/12/1 
f  248/9/1  249/10/1  144/11/1  143/12/1 
f  249/9/1  250/10/1  145/11/1  144/12/1 
f  250/1/1  251/2/1  252/3/1  145/4/1 
f  251/1/1  253/2/1  254/3/1  252/4/1 
f  253/1/1  255/2/1  256/3/1  254/4/1 
f  255/1/1  257/2/1  258/3/1  256/4/1 
f  257/1/1  259/2/1  260/3/1  258/4/1 
f  259/1/1  261/2/1  262/3/1  260/4/1 
f  261/1/1  263/2/1  264/3/1  262/4/1 
f  263/1/1  265/2/1  266/3/1  264/4/1 
f  265/1/1  267/2/1  268/3/1  266/4/1 
f  267/1/1  269/2/1  270/3/1  268/4/1 
f  269/1/1  271/2/1  272/3/1  270/4/1 
f  271/1/1  273/2/1  274/3/1  272/4/1 
f  273/1/1  275/2/1  276/3/1  274/4/1 
f  275/1/1  277/2/1  278/3/1  276/4/1 
f  277/1/1  279/2/1  280/3/1  278/4/1 
f  279/1/1  281/2/1  282/3/1  280/4/1 
f  281/1/1  283/2/1  284/3/1  282/4/1 
f  283/1/1  285/2/1  286/3/1  284/4/1 
f  285/1/1  287/2/1  288/3/1  286/4/1 
f  287/1/1  289/2/1  290/3/1  288/4/1 
f  289/1/1  291/2/1  292/3/1  290/4/1 
f  291/1/1  293/2/1  294/3/1  292/4/1 
f  293/1/1  295/2/1  296/3/1  294/4/1 
g mesh_[01]_[00]
f  297/13/1  298/14/1  299/15/1  300/16/1 
f  298/13/1  301/14/1  302/15/1  299/16/1 
f  301/17/1  303/18/1  304/19/1  302/20/1 
f  303/13/1  305/14/1  306/15/1  304/16/1 
f  307/13/1  308/14/1  309/15/1  310/16/1 
f  311/21/1  312/22/1  313/23/1  314/24/1 
f  315/13/1  316/14/1  317/15/1  318/16/1 
f  3/25/1  6/26/1  297/27/1  319/28/1 
f  320/29/1  321/30/1  322/31/1  323/32/1 
f  324/21/1  325/22/1  326/23/1  327/24/1 
f  328/13/1  329/14/1  330/15/1  331/16/1 
f  329/13/1  332/14/1  333/15/1  330/16/1 
f  44/33/1  43/34/1  334/35/1  335/36/1 
f  336/13/1  337/14/1  338/15/1  339/16/1 
f  337/13/1  340/14/1  341/15/1  338/16/1 
f  342/13/1  343/14/1  344/15/1  345/16/1 
f  343/13/1  346/14/1  347/15/1  344/16/1 
f  348/21/1  349/22/1  350/23/1  351/24/1 
f  352/13/1  353/14/1  337/15/1  336/16/1 
f  353/13/1  354/14/1  340/15/1  337/16/1 
f  76/1/1  78/2/1  41/3/1  77/4/1 
f  79/9/1  355/10/1  45/11/1  42/12/1 
f  355/9/1  356/10/1  47/11/1  45/12/1 
f  356/9/1  80/10/1  49/11/1  47/12/1 
f  357/21/1  358/22/1  359/23/1  360/24/1 
f  361/21/1  362/22/1  363/23/1  364/24/1 
f  365/37/1  366/38/1  53/39/1  367/40/1 
f  368/13/1  369/14/1  56/15/1  55/16/1 
f  369/13/1  370/14/1  57/15/1  56/16/1 
f  111/9/1  112/10/1  78/11/1  76/12/1 
f  113/9/1  371/10/1  355/11/1  79/12/1 
f  371/9/1  372/10/1  356/11/1  355/12/1 
f  372/9/1  114/10/1  80/11/1  356/12/1 
f  164/41/1  166/42/1  373/43/1  374/44/1 
f  178/33/1  180/34/1  375/35/1  376/36/1 
f  218/33/1  220/34/1  377/35/1  378/36/1 
f  140/9/1  239/10/1  112/11/1  111/12/1 
f  239/9/1  241/10/1  113/11/1  112/12/1 
f  241/9/1  243/10/1  371/11/1  113/12/1 
f  243/45/1  245/46/1  372/47/1  371/48/1 
f  245/9/1  141/10/1  114/11/1  372/12/1 
f  256/33/1  258/34/1  379/35/1  380/36/1 
f  274/33/1  276/34/1  381/35/1  382/36/1 
f  292/49/1  294/50/1  383/51/1  384/52/1 
g mesh_[02]_[00]
f  4/53/1  3/54/1  319/55/1  385/56/1 
f  16/53/1  18/54/1  386/55/1  387/56/1 
f  50/53/1  52/54/1  325/55/1  324/56/1 
f  168/53/1  170/54/1  388/55/1  389/56/1 
f  390/57/1  391/58/1  369/59/1  368/60/1 
f  391/57/1  392/58/1  370/59/1  369/60/1 
f  174/53/1  173/54/1  393/55/1  394/56/1 
f  214/57/1  216/58/1  395/59/1  396/60/1 
f  270/57/1  272/58/1  397/59/1  398/60/1 
f  399/1/1  400/2/1  390/3/1  401/4/1 
f  400/1/1  402/2/1  391/3/1  390/4/1 
f  402/1/1  403/2/1  392/3/1  391/4/1 
f  403/1/1  404/2/1  405/3/1  392/4/1 
