# Wavefront OBJ file automatically generated by Tiled2Unity

# Vertices (Count = 287)
v -1050 -350 0
v -1120 -350 0
v -1120 -280 0
v -1050 -280 0
v -1190 -350 0
v -1190 -280 0
v -1260 -350 0
v -1260 -280 0
v -1330 -350 0
v -1330 -280 0
v 0 -560 0
v -70 -560 0
v -70 -490 0
v 0 -490 0
v -140 -560 0
v -140 -490 0
v -210 -560 0
v -210 -490 0
v -280 -560 0
v -280 -490 0
v -350 -560 0
v -350 -490 0
v -420 -560 0
v -420 -490 0
v -490 -560 0
v -490 -490 0
v -560 -560 0
v -560 -490 0
v -630 -560 0
v -630 -490 0
v -700 -560 0
v -700 -490 0
v -770 -560 0
v -770 -490 0
v -840 -560 0
v -840 -490 0
v -910 -560 0
v -910 -490 0
v -980 -560 0
v -980 -490 0
v -1050 -560 0
v -1050 -490 0
v -1120 -560 0
v -1120 -490 0
v -1190 -560 0
v -1190 -490 0
v -1260 -560 0
v -1260 -490 0
v -1330 -560 0
v -1330 -490 0
v -1400 -560 0
v -1400 -490 0
v -1470 -560 0
v -1470 -490 0
v -1540 -560 0
v -1540 -490 0
v -1610 -560 0
v -1610 -490 0
v -1680 -560 0
v -1680 -490 0
v -1750 -560 0
v -1750 -490 0
v -1820 -560 0
v -1820 -490 0
v -1890 -560 0
v -1890 -490 0
v -1960 -560 0
v -1960 -490 0
v -2030 -560 0
v -2030 -490 0
v -2100 -560 0
v -2100 -490 0
v -2170 -560 0
v -2170 -490 0
v -2240 -560 0
v -2240 -490 0
v -2310 -560 0
v -2310 -490 0
v -2380 -560 0
v -2380 -490 0
v -2450 -560 0
v -2450 -490 0
v -2520 -560 0
v -2520 -490 0
v -2590 -560 0
v -2590 -490 0
v -2660 -560 0
v -2660 -490 0
v -2730 -560 0
v -2730 -490 0
v -2800 -560 0
v -2800 -490 0
v -2870 -560 0
v -2870 -490 0
v -2940 -560 0
v -2940 -490 0
v -3010 -560 0
v -3010 -490 0
v -3080 -560 0
v -3080 -490 0
v -3150 -560 0
v -3150 -490 0
v -3220 -560 0
v -3220 -490 0
v -3290 -560 0
v -3290 -490 0
v -3360 -560 0
v -3360 -490 0
v -3430 -560 0
v -3430 -490 0
v -3500 -560 0
v -3500 -490 0
v -3570 -560 0
v -3570 -490 0
v -3640 -560 0
v -3640 -490 0
v -3710 -560 0
v -3710 -490 0
v -3780 -560 0
v -3780 -490 0
v -3850 -560 0
v -3850 -490 0
v -3920 -560 0
v -3920 -490 0
v -3990 -560 0
v -3990 -490 0
v -4060 -560 0
v -4060 -490 0
v -4130 -560 0
v -4130 -490 0
v -4200 -560 0
v -4200 -490 0
v -4270 -560 0
v -4270 -490 0
v -4340 -560 0
v -4340 -490 0
v -4410 -560 0
v -4410 -490 0
v -4480 -560 0
v -4480 -490 0
v -4550 -560 0
v -4550 -490 0
v -4620 -560 0
v -4620 -490 0
v -4690 -560 0
v -4690 -490 0
v -4760 -560 0
v -4760 -490 0
v -4830 -560 0
v -4830 -490 0
v -4900 -560 0
v -4900 -490 0
v -4970 -560 0
v -4970 -490 0
v -5040 -560 0
v -5040 -490 0
v -5110 -560 0
v -5110 -490 0
v -5180 -560 0
v -5180 -490 0
v -5250 -560 0
v -5250 -490 0
v -5320 -560 0
v -5320 -490 0
v -5390 -560 0
v -5390 -490 0
v -5460 -560 0
v -5460 -490 0
v -5530 -560 0
v -5530 -490 0
v -5600 -560 0
v -5600 -490 0
v -5670 -560 0
v -5670 -490 0
v -5740 -560 0
v -5740 -490 0
v -5810 -560 0
v -5810 -490 0
v -5880 -560 0
v -5880 -490 0
v -5950 -560 0
v -5950 -490 0
v -6020 -560 0
v -6020 -490 0
v -6090 -560 0
v -6090 -490 0
v -6160 -560 0
v -6160 -490 0
v -6230 -560 0
v -6230 -490 0
v -6300 -560 0
v -6300 -490 0
v -6370 -560 0
v -6370 -490 0
v -6440 -560 0
v -6440 -490 0
v -6510 -560 0
v -6510 -490 0
v -6580 -560 0
v -6580 -490 0
v -6650 -560 0
v -6650 -490 0
v -6720 -560 0
v -6720 -490 0
v -2100 -70 0
v -2170 -70 0
v -2170 0 0
v -2100 0 0
v -2240 -70 0
v -2240 0 0
v -2310 -70 0
v -2310 0 0
v -2380 -70 0
v -2380 0 0
v -2870 -70 0
v -2940 -70 0
v -2940 0 0
v -2870 0 0
v -2100 -140 0
v -2170 -140 0
v -2240 -140 0
v -2310 -140 0
v -2380 -140 0
v -1050 -210 0
v -1120 -210 0
v -1120 -140 0
v -1050 -140 0
v -2100 -210 0
v -2170 -210 0
v -2240 -210 0
v -2310 -210 0
v -2380 -210 0
v -1260 -210 0
v -1190 -210 0
v -2100 -280 0
v -2170 -280 0
v -2240 -280 0
v -2310 -280 0
v -2380 -280 0
v -980 -350 0
v -980 -280 0
v -2100 -350 0
v -2170 -350 0
v -2240 -350 0
v -2310 -350 0
v -2380 -350 0
v -350 -420 0
v -420 -420 0
v -420 -350 0
v -350 -350 0
v -490 -420 0
v -490 -350 0
v -560 -420 0
v -560 -350 0
v -2100 -420 0
v -2170 -420 0
v -2240 -420 0
v -2310 -420 0
v -2380 -420 0
v -3360 -420 0
v -3430 -420 0
v -3430 -350 0
v -3360 -350 0
v -4060 -420 0
v -4130 -420 0
v -4130 -350 0
v -4060 -350 0
v -4900 -420 0
v -4970 -420 0
v -4970 -350 0
v -4900 -350 0
v -2520 -420 0
v -2450 -420 0
v -6090 -420 0
v -6020 -420 0
v -6370 -420 0
v -6300 -420 0
v -210 -420 0
v -140 -420 0
v -5880 -420 0
v -5810 -420 0
v -5950 -420 0
v -6230 -420 0
v -6160 -420 0
v -6440 -420 0
v -6580 -420 0
v -6510 -420 0

# Texture Coorindates (Count = 56)
vt 0.4102783 0.5899658
vt 0.5467529 0.5899658
vt 0.5467529 0.7264404
vt 0.4102783 0.7264404
vt 0.1368408 0.4532471
vt 0.2733154 0.4532471
vt 0.2733154 0.5897217
vt 0.1368408 0.5897217
vt 0.1368408 0.5899658
vt 0.2733154 0.5899658
vt 0.2733154 0.7264404
vt 0.1368408 0.7264404
vt 0.2735596 0.7266846
vt 0.4100342 0.7266846
vt 0.4100342 0.8631592
vt 0.2735596 0.8631592
vt 0.6837158 0.1798096
vt 0.8201904 0.1798096
vt 0.8201904 0.3162842
vt 0.6837158 0.3162842
vt 0.0001220703 0.1798096
vt 0.1365967 0.1798096
vt 0.1365967 0.3162842
vt 0.0001220703 0.3162842
vt 0.6837158 0.4532471
vt 0.8201904 0.4532471
vt 0.8201904 0.5897217
vt 0.6837158 0.5897217
vt 0.8204346 0.5899658
vt 0.9569092 0.5899658
vt 0.9569092 0.7264404
vt 0.8204346 0.7264404
vt 0.5469971 0.4532471
vt 0.6834717 0.4532471
vt 0.6834717 0.5897217
vt 0.5469971 0.5897217
vt 0.6837158 0.3165283
vt 0.8201904 0.3165283
vt 0.8201904 0.4530029
vt 0.6837158 0.4530029
vt 0.8204346 0.1798096
vt 0.9569092 0.1798096
vt 0.9569092 0.3162842
vt 0.8204346 0.3162842
vt 0.6837158 0.7266846
vt 0.8201904 0.7266846
vt 0.8201904 0.8631592
vt 0.6837158 0.8631592
vt 0.5469971 0.8634033
vt 0.6834717 0.8634033
vt 0.6834717 0.9998779
vt 0.5469971 0.9998779
vt 0.4102783 0.7266846
vt 0.5467529 0.7266846
vt 0.5467529 0.8631592
vt 0.4102783 0.8631592

# Normal
vn 0 0 -1

# Groups (Count = 3)
g mesh_[00]_[00]
f  1/1/1  2/2/1  3/3/1  4/4/1 
f  2/1/1  5/2/1  6/3/1  3/4/1 
f  5/1/1  7/2/1  8/3/1  6/4/1 
f  7/1/1  9/2/1  10/3/1  8/4/1 
f  11/1/1  12/2/1  13/3/1  14/4/1 
f  12/1/1  15/2/1  16/3/1  13/4/1 
f  15/1/1  17/2/1  18/3/1  16/4/1 
f  17/1/1  19/2/1  20/3/1  18/4/1 
f  19/1/1  21/2/1  22/3/1  20/4/1 
f  21/1/1  23/2/1  24/3/1  22/4/1 
f  23/1/1  25/2/1  26/3/1  24/4/1 
f  25/1/1  27/2/1  28/3/1  26/4/1 
f  27/5/1  29/6/1  30/7/1  28/8/1 
f  29/5/1  31/6/1  32/7/1  30/8/1 
f  31/5/1  33/6/1  34/7/1  32/8/1 
f  33/5/1  35/6/1  36/7/1  34/8/1 
f  35/1/1  37/2/1  38/3/1  36/4/1 
f  37/1/1  39/2/1  40/3/1  38/4/1 
f  39/5/1  41/6/1  42/7/1  40/8/1 
f  41/5/1  43/6/1  44/7/1  42/8/1 
f  43/5/1  45/6/1  46/7/1  44/8/1 
f  45/5/1  47/6/1  48/7/1  46/8/1 
f  47/5/1  49/6/1  50/7/1  48/8/1 
f  49/1/1  51/2/1  52/3/1  50/4/1 
f  51/1/1  53/2/1  54/3/1  52/4/1 
f  53/1/1  55/2/1  56/3/1  54/4/1 
f  55/5/1  57/6/1  58/7/1  56/8/1 
f  57/5/1  59/6/1  60/7/1  58/8/1 
f  59/5/1  61/6/1  62/7/1  60/8/1 
f  61/5/1  63/6/1  64/7/1  62/8/1 
f  63/5/1  65/6/1  66/7/1  64/8/1 
f  65/1/1  67/2/1  68/3/1  66/4/1 
f  67/1/1  69/2/1  70/3/1  68/4/1 
f  69/1/1  71/2/1  72/3/1  70/4/1 
f  71/5/1  73/6/1  74/7/1  72/8/1 
f  73/5/1  75/6/1  76/7/1  74/8/1 
f  75/5/1  77/6/1  78/7/1  76/8/1 
f  77/5/1  79/6/1  80/7/1  78/8/1 
f  79/1/1  81/2/1  82/3/1  80/4/1 
f  81/1/1  83/2/1  84/3/1  82/4/1 
f  83/1/1  85/2/1  86/3/1  84/4/1 
f  85/5/1  87/6/1  88/7/1  86/8/1 
f  87/5/1  89/6/1  90/7/1  88/8/1 
f  89/5/1  91/6/1  92/7/1  90/8/1 
f  91/1/1  93/2/1  94/3/1  92/4/1 
f  93/1/1  95/2/1  96/3/1  94/4/1 
f  95/1/1  97/2/1  98/3/1  96/4/1 
f  97/5/1  99/6/1  100/7/1  98/8/1 
f  99/5/1  101/6/1  102/7/1  100/8/1 
f  101/5/1  103/6/1  104/7/1  102/8/1 
f  103/5/1  105/6/1  106/7/1  104/8/1 
f  105/5/1  107/6/1  108/7/1  106/8/1 
f  107/1/1  109/2/1  110/3/1  108/4/1 
f  109/1/1  111/2/1  112/3/1  110/4/1 
f  111/1/1  113/2/1  114/3/1  112/4/1 
f  113/5/1  115/6/1  116/7/1  114/8/1 
f  115/5/1  117/6/1  118/7/1  116/8/1 
f  117/5/1  119/6/1  120/7/1  118/8/1 
f  119/1/1  121/2/1  122/3/1  120/4/1 
f  121/1/1  123/2/1  124/3/1  122/4/1 
f  123/1/1  125/2/1  126/3/1  124/4/1 
f  125/5/1  127/6/1  128/7/1  126/8/1 
f  127/5/1  129/6/1  130/7/1  128/8/1 
f  129/5/1  131/6/1  132/7/1  130/8/1 
f  131/1/1  133/2/1  134/3/1  132/4/1 
f  133/1/1  135/2/1  136/3/1  134/4/1 
f  135/1/1  137/2/1  138/3/1  136/4/1 
f  137/5/1  139/6/1  140/7/1  138/8/1 
f  139/5/1  141/6/1  142/7/1  140/8/1 
f  141/5/1  143/6/1  144/7/1  142/8/1 
f  143/1/1  145/2/1  146/3/1  144/4/1 
f  145/1/1  147/2/1  148/3/1  146/4/1 
f  147/1/1  149/2/1  150/3/1  148/4/1 
f  149/5/1  151/6/1  152/7/1  150/8/1 
f  151/5/1  153/6/1  154/7/1  152/8/1 
f  153/5/1  155/6/1  156/7/1  154/8/1 
f  155/1/1  157/2/1  158/3/1  156/4/1 
f  157/1/1  159/2/1  160/3/1  158/4/1 
f  159/1/1  161/2/1  162/3/1  160/4/1 
f  161/5/1  163/6/1  164/7/1  162/8/1 
f  163/5/1  165/6/1  166/7/1  164/8/1 
f  165/5/1  167/6/1  168/7/1  166/8/1 
f  167/1/1  169/2/1  170/3/1  168/4/1 
f  169/1/1  171/2/1  172/3/1  170/4/1 
f  171/1/1  173/2/1  174/3/1  172/4/1 
f  173/1/1  175/2/1  176/3/1  174/4/1 
f  175/5/1  177/6/1  178/7/1  176/8/1 
f  177/1/1  179/2/1  180/3/1  178/4/1 
f  179/1/1  181/2/1  182/3/1  180/4/1 
f  181/1/1  183/2/1  184/3/1  182/4/1 
f  183/1/1  185/2/1  186/3/1  184/4/1 
f  185/1/1  187/2/1  188/3/1  186/4/1 
f  187/1/1  189/2/1  190/3/1  188/4/1 
f  189/1/1  191/2/1  192/3/1  190/4/1 
f  191/1/1  193/2/1  194/3/1  192/4/1 
f  193/1/1  195/2/1  196/3/1  194/4/1 
f  195/1/1  197/2/1  198/3/1  196/4/1 
f  197/1/1  199/2/1  200/3/1  198/4/1 
f  199/1/1  201/2/1  202/3/1  200/4/1 
f  201/1/1  203/2/1  204/3/1  202/4/1 
g mesh_[01]_[00]
f  205/9/1  206/10/1  207/11/1  208/12/1 
f  206/9/1  209/10/1  210/11/1  207/12/1 
f  209/9/1  211/10/1  212/11/1  210/12/1 
f  211/9/1  213/10/1  214/11/1  212/12/1 
f  215/13/1  216/14/1  217/15/1  218/16/1 
f  219/9/1  220/10/1  206/11/1  205/12/1 
f  220/9/1  221/10/1  209/11/1  206/12/1 
f  221/9/1  222/10/1  211/11/1  209/12/1 
f  222/9/1  223/10/1  213/11/1  211/12/1 
f  224/17/1  225/18/1  226/19/1  227/20/1 
f  228/9/1  229/10/1  220/11/1  219/12/1 
f  229/9/1  230/10/1  221/11/1  220/12/1 
f  230/9/1  231/10/1  222/11/1  221/12/1 
f  231/9/1  232/10/1  223/11/1  222/12/1 
f  6/21/1  8/22/1  233/23/1  234/24/1 
f  235/9/1  236/10/1  229/11/1  228/12/1 
f  236/9/1  237/10/1  230/11/1  229/12/1 
f  237/9/1  238/10/1  231/11/1  230/12/1 
f  238/9/1  239/10/1  232/11/1  231/12/1 
f  240/25/1  1/26/1  4/27/1  241/28/1 
f  242/9/1  243/10/1  236/11/1  235/12/1 
f  243/9/1  244/10/1  237/11/1  236/12/1 
f  244/9/1  245/10/1  238/11/1  237/12/1 
f  245/9/1  246/10/1  239/11/1  238/12/1 
f  247/9/1  248/10/1  249/11/1  250/12/1 
f  248/9/1  251/10/1  252/11/1  249/12/1 
f  251/9/1  253/10/1  254/11/1  252/12/1 
f  255/9/1  256/10/1  243/11/1  242/12/1 
f  256/9/1  257/10/1  244/11/1  243/12/1 
f  257/9/1  258/10/1  245/11/1  244/12/1 
f  258/9/1  259/10/1  246/11/1  245/12/1 
f  260/17/1  261/18/1  262/19/1  263/20/1 
f  264/17/1  265/18/1  266/19/1  267/20/1 
f  268/17/1  269/18/1  270/19/1  271/20/1 
f  22/9/1  24/10/1  248/11/1  247/12/1 
f  24/29/1  26/30/1  251/31/1  248/32/1 
f  26/9/1  28/10/1  253/11/1  251/12/1 
f  72/33/1  74/34/1  256/35/1  255/36/1 
f  74/9/1  76/10/1  257/11/1  256/12/1 
f  76/9/1  78/10/1  258/11/1  257/12/1 
f  78/9/1  80/10/1  259/11/1  258/12/1 
f  82/37/1  84/38/1  272/39/1  273/40/1 
f  184/41/1  186/42/1  274/43/1  275/44/1 
f  192/41/1  194/42/1  276/43/1  277/44/1 
f  175/1/1  177/2/1  178/3/1  176/4/1 
g mesh_[02]_[00]
f  3/45/1  6/46/1  234/47/1  225/48/1 
f  16/49/1  18/50/1  278/51/1  279/52/1 
f  178/49/1  180/50/1  280/51/1  281/52/1 
f  182/49/1  184/50/1  275/51/1  282/52/1 
f  188/49/1  190/50/1  283/51/1  284/52/1 
f  194/49/1  196/50/1  285/51/1  276/52/1 
f  198/53/1  200/54/1  286/55/1  287/56/1 
