# Wavefront OBJ file automatically generated by Tiled2Unity

# Vertices (Count = 375)
v -420 -140 0
v -490 -140 0
v -490 -70 0
v -420 -70 0
v -350 -210 0
v -420 -210 0
v -350 -140 0
v -490 -210 0
v -350 -280 0
v -420 -280 0
v -490 -280 0
v -280 -350 0
v -350 -350 0
v -280 -280 0
v -420 -350 0
v -490 -350 0
v -280 -420 0
v -350 -420 0
v -420 -420 0
v -490 -420 0
v -5390 -420 0
v -5460 -420 0
v -5460 -350 0
v -5390 -350 0
v -6230 -420 0
v -6300 -420 0
v -6300 -350 0
v -6230 -350 0
v -210 -490 0
v -280 -490 0
v -210 -420 0
v -350 -490 0
v -420 -490 0
v -490 -490 0
v -560 -490 0
v -560 -420 0
v -630 -490 0
v -630 -420 0
v -700 -490 0
v -700 -420 0
v -770 -490 0
v -770 -420 0
v -840 -490 0
v -840 -420 0
v -910 -490 0
v -910 -420 0
v -980 -490 0
v -980 -420 0
v -1050 -490 0
v -1050 -420 0
v -1120 -490 0
v -1120 -420 0
v -1190 -490 0
v -1190 -420 0
v -5390 -490 0
v -5460 -490 0
v -5530 -490 0
v -5530 -420 0
v -5600 -490 0
v -5600 -420 0
v -5670 -490 0
v -5670 -420 0
v -5740 -490 0
v -5740 -420 0
v -5810 -490 0
v -5810 -420 0
v -5880 -490 0
v -5880 -420 0
v -5950 -490 0
v -5950 -420 0
v -6020 -490 0
v -6020 -420 0
v -6090 -490 0
v -6090 -420 0
v -6160 -490 0
v -6160 -420 0
v -6230 -490 0
v -6300 -490 0
v -6650 -490 0
v -6720 -490 0
v -6720 -420 0
v -6650 -420 0
v 0 -560 0
v -70 -560 0
v -70 -490 0
v 0 -490 0
v -140 -560 0
v -140 -490 0
v -210 -560 0
v -280 -560 0
v -350 -560 0
v -420 -560 0
v -490 -560 0
v -560 -560 0
v -630 -560 0
v -700 -560 0
v -770 -560 0
v -840 -560 0
v -910 -560 0
v -980 -560 0
v -1050 -560 0
v -1120 -560 0
v -1190 -560 0
v -1260 -560 0
v -1260 -490 0
v -1330 -560 0
v -1330 -490 0
v -1400 -560 0
v -1400 -490 0
v -1470 -560 0
v -1470 -490 0
v -1540 -560 0
v -1540 -490 0
v -1610 -560 0
v -1610 -490 0
v -1680 -560 0
v -1680 -490 0
v -1750 -560 0
v -1750 -490 0
v -1820 -560 0
v -1820 -490 0
v -1890 -560 0
v -1890 -490 0
v -1960 -560 0
v -1960 -490 0
v -2030 -560 0
v -2030 -490 0
v -2100 -560 0
v -2100 -490 0
v -2170 -560 0
v -2170 -490 0
v -2240 -560 0
v -2240 -490 0
v -2310 -560 0
v -2310 -490 0
v -2380 -560 0
v -2380 -490 0
v -2450 -560 0
v -2450 -490 0
v -2520 -560 0
v -2520 -490 0
v -2590 -560 0
v -2590 -490 0
v -2660 -560 0
v -2660 -490 0
v -2730 -560 0
v -2730 -490 0
v -2800 -560 0
v -2800 -490 0
v -2870 -560 0
v -2870 -490 0
v -2940 -560 0
v -2940 -490 0
v -3010 -560 0
v -3010 -490 0
v -3080 -560 0
v -3080 -490 0
v -3150 -560 0
v -3150 -490 0
v -3220 -560 0
v -3220 -490 0
v -3290 -560 0
v -3290 -490 0
v -3360 -560 0
v -3360 -490 0
v -3430 -560 0
v -3430 -490 0
v -3500 -560 0
v -3500 -490 0
v -3570 -560 0
v -3570 -490 0
v -3640 -560 0
v -3640 -490 0
v -3710 -560 0
v -3710 -490 0
v -3780 -560 0
v -3780 -490 0
v -3850 -560 0
v -3850 -490 0
v -3920 -560 0
v -3920 -490 0
v -3990 -560 0
v -3990 -490 0
v -4060 -560 0
v -4060 -490 0
v -4130 -560 0
v -4130 -490 0
v -4200 -560 0
v -4200 -490 0
v -4270 -560 0
v -4270 -490 0
v -4340 -560 0
v -4340 -490 0
v -4410 -560 0
v -4410 -490 0
v -4480 -560 0
v -4480 -490 0
v -4550 -560 0
v -4550 -490 0
v -4620 -560 0
v -4620 -490 0
v -4690 -560 0
v -4690 -490 0
v -4760 -560 0
v -4760 -490 0
v -4830 -560 0
v -4830 -490 0
v -4900 -560 0
v -4900 -490 0
v -4970 -560 0
v -4970 -490 0
v -5040 -560 0
v -5040 -490 0
v -5110 -560 0
v -5110 -490 0
v -5180 -560 0
v -5180 -490 0
v -5250 -560 0
v -5250 -490 0
v -5320 -560 0
v -5320 -490 0
v -5390 -560 0
v -5460 -560 0
v -5530 -560 0
v -5600 -560 0
v -5670 -560 0
v -5740 -560 0
v -5810 -560 0
v -5880 -560 0
v -5950 -560 0
v -6020 -560 0
v -6090 -560 0
v -6160 -560 0
v -6230 -560 0
v -6300 -560 0
v -6370 -560 0
v -6370 -490 0
v -6440 -560 0
v -6440 -490 0
v -6510 -560 0
v -6510 -490 0
v -6580 -560 0
v -6580 -490 0
v -6650 -560 0
v -6720 -560 0
v -840 -70 0
v -910 -70 0
v -910 0 0
v -840 0 0
v -2170 -70 0
v -2240 -70 0
v -2240 0 0
v -2170 0 0
v -1050 -140 0
v -1120 -140 0
v -1120 -70 0
v -1050 -70 0
v -2170 -140 0
v -2240 -140 0
v -2170 -210 0
v -2240 -210 0
v -5530 -210 0
v -5600 -210 0
v -5600 -140 0
v -5530 -140 0
v -630 -280 0
v -700 -280 0
v -700 -210 0
v -630 -210 0
v -770 -280 0
v -770 -210 0
v -840 -280 0
v -840 -210 0
v -910 -280 0
v -910 -210 0
v -980 -280 0
v -980 -210 0
v -1050 -280 0
v -1050 -210 0
v -1120 -280 0
v -1120 -210 0
v -2170 -280 0
v -2240 -280 0
v -2170 -350 0
v -2240 -350 0
v -5530 -350 0
v -5600 -350 0
v -5600 -280 0
v -5530 -280 0
v -5670 -350 0
v -5670 -280 0
v -5740 -350 0
v -5740 -280 0
v -5810 -350 0
v -5810 -280 0
v -5880 -350 0
v -5880 -280 0
v -5950 -350 0
v -5950 -280 0
v -6020 -350 0
v -6020 -280 0
v -6090 -350 0
v -6090 -280 0
v -6160 -350 0
v -6160 -280 0
v -2170 -420 0
v -2240 -420 0
v -1470 -420 0
v -1400 -420 0
v -1610 -420 0
v -1540 -420 0
v -1750 -420 0
v -1680 -420 0
v -1890 -420 0
v -1820 -420 0
v -2030 -420 0
v -1960 -420 0
v -2100 -420 0
v -2310 -420 0
v -2450 -420 0
v -2380 -420 0
v -2590 -420 0
v -2520 -420 0
v -2730 -420 0
v -2660 -420 0
v -2870 -420 0
v -2800 -420 0
v -3010 -420 0
v -2940 -420 0
v -3150 -420 0
v -3080 -420 0
v -3290 -420 0
v -3220 -420 0
v -3430 -420 0
v -3360 -420 0
v -3570 -420 0
v -3500 -420 0
v -3710 -420 0
v -3640 -420 0
v -3850 -420 0
v -3780 -420 0
v -3990 -420 0
v -3920 -420 0
v -4130 -420 0
v -4060 -420 0
v -4270 -420 0
v -4200 -420 0
v -4410 -420 0
v -4340 -420 0
v -4550 -420 0
v -4480 -420 0
v -4690 -420 0
v -4620 -420 0
v -4830 -420 0
v -4760 -420 0
v -4970 -420 0
v -4900 -420 0
v -5110 -420 0
v -5040 -420 0
v -5250 -420 0
v -5180 -420 0
v -5320 -420 0
v -490 0 0
v -420 0 0
v -350 -70 0
v -280 -210 0
v -5460 -280 0
v -5390 -280 0
v -6300 -280 0
v -6230 -280 0
v -210 -350 0
v -1330 -420 0
v -1260 -420 0
v -6510 -420 0
v -6440 -420 0

# Texture Coorindates (Count = 44)
vt 0.8204346 0.7266846
vt 0.9569092 0.7266846
vt 0.9569092 0.8631592
vt 0.8204346 0.8631592
vt 0.1368408 0.5899658
vt 0.2733154 0.5899658
vt 0.2733154 0.7264404
vt 0.1368408 0.7264404
vt 0.2735596 0.3165283
vt 0.4100342 0.3165283
vt 0.4100342 0.4530029
vt 0.2735596 0.4530029
vt 0.4102783 0.7266846
vt 0.5467529 0.7266846
vt 0.5467529 0.8631592
vt 0.4102783 0.8631592
vt 0.6837158 0.5899658
vt 0.8201904 0.5899658
vt 0.8201904 0.7264404
vt 0.6837158 0.7264404
vt 0.1368408 0.8634033
vt 0.2733154 0.8634033
vt 0.2733154 0.9998779
vt 0.1368408 0.9998779
vt 0.6837158 0.1798096
vt 0.8201904 0.1798096
vt 0.8201904 0.3162842
vt 0.6837158 0.3162842
vt 0.8204346 0.1798096
vt 0.9569092 0.1798096
vt 0.9569092 0.3162842
vt 0.8204346 0.3162842
vt 0.4102783 0.4532471
vt 0.5467529 0.4532471
vt 0.5467529 0.5897217
vt 0.4102783 0.5897217
vt 0.6837158 0.7266846
vt 0.8201904 0.7266846
vt 0.8201904 0.8631592
vt 0.6837158 0.8631592
vt 0.5469971 0.8634033
vt 0.6834717 0.8634033
vt 0.6834717 0.9998779
vt 0.5469971 0.9998779

# Normal
vn 0 0 -1

# Groups (Count = 3)
g mesh_[00]_[00]
f  1/1/1  2/2/1  3/3/1  4/4/1 
f  5/1/1  6/2/1  1/3/1  7/4/1 
f  6/5/1  8/6/1  2/7/1  1/8/1 
f  9/5/1  10/6/1  6/7/1  5/8/1 
f  10/5/1  11/6/1  8/7/1  6/8/1 
f  12/1/1  13/2/1  9/3/1  14/4/1 
f  13/5/1  15/6/1  10/7/1  9/8/1 
f  15/5/1  16/6/1  11/7/1  10/8/1 
f  17/5/1  18/6/1  13/7/1  12/8/1 
f  18/5/1  19/6/1  15/7/1  13/8/1 
f  19/5/1  20/6/1  16/7/1  15/8/1 
f  21/1/1  22/2/1  23/3/1  24/4/1 
f  25/1/1  26/2/1  27/3/1  28/4/1 
f  29/1/1  30/2/1  17/3/1  31/4/1 
f  30/5/1  32/6/1  18/7/1  17/8/1 
f  32/5/1  33/6/1  19/7/1  18/8/1 
f  33/5/1  34/6/1  20/7/1  19/8/1 
f  34/9/1  35/10/1  36/11/1  20/12/1 
f  35/9/1  37/10/1  38/11/1  36/12/1 
f  37/9/1  39/10/1  40/11/1  38/12/1 
f  39/9/1  41/10/1  42/11/1  40/12/1 
f  41/9/1  43/10/1  44/11/1  42/12/1 
f  43/9/1  45/10/1  46/11/1  44/12/1 
f  45/9/1  47/10/1  48/11/1  46/12/1 
f  47/9/1  49/10/1  50/11/1  48/12/1 
f  49/9/1  51/10/1  52/11/1  50/12/1 
f  51/9/1  53/10/1  54/11/1  52/12/1 
f  55/5/1  56/6/1  22/7/1  21/8/1 
f  56/9/1  57/10/1  58/11/1  22/12/1 
f  57/9/1  59/10/1  60/11/1  58/12/1 
f  59/9/1  61/10/1  62/11/1  60/12/1 
f  61/9/1  63/10/1  64/11/1  62/12/1 
f  63/9/1  65/10/1  66/11/1  64/12/1 
f  65/9/1  67/10/1  68/11/1  66/12/1 
f  67/9/1  69/10/1  70/11/1  68/12/1 
f  69/9/1  71/10/1  72/11/1  70/12/1 
f  71/9/1  73/10/1  74/11/1  72/12/1 
f  73/9/1  75/10/1  76/11/1  74/12/1 
f  75/9/1  77/10/1  25/11/1  76/12/1 
f  77/5/1  78/6/1  26/7/1  25/8/1 
f  79/13/1  80/14/1  81/15/1  82/16/1 
f  83/1/1  84/2/1  85/3/1  86/4/1 
f  84/1/1  87/2/1  88/3/1  85/4/1 
f  87/1/1  89/2/1  29/3/1  88/4/1 
f  89/5/1  90/6/1  30/7/1  29/8/1 
f  90/5/1  91/6/1  32/7/1  30/8/1 
f  91/5/1  92/6/1  33/7/1  32/8/1 
f  92/5/1  93/6/1  34/7/1  33/8/1 
f  93/5/1  94/6/1  35/7/1  34/8/1 
f  94/5/1  95/6/1  37/7/1  35/8/1 
f  95/5/1  96/6/1  39/7/1  37/8/1 
f  96/5/1  97/6/1  41/7/1  39/8/1 
f  97/5/1  98/6/1  43/7/1  41/8/1 
f  98/5/1  99/6/1  45/7/1  43/8/1 
f  99/5/1  100/6/1  47/7/1  45/8/1 
f  100/5/1  101/6/1  49/7/1  47/8/1 
f  101/5/1  102/6/1  51/7/1  49/8/1 
f  102/5/1  103/6/1  53/7/1  51/8/1 
f  103/1/1  104/2/1  105/3/1  53/4/1 
f  104/1/1  106/2/1  107/3/1  105/4/1 
f  106/1/1  108/2/1  109/3/1  107/4/1 
f  108/1/1  110/2/1  111/3/1  109/4/1 
f  110/1/1  112/2/1  113/3/1  111/4/1 
f  112/1/1  114/2/1  115/3/1  113/4/1 
f  114/1/1  116/2/1  117/3/1  115/4/1 
f  116/1/1  118/2/1  119/3/1  117/4/1 
f  118/1/1  120/2/1  121/3/1  119/4/1 
f  120/1/1  122/2/1  123/3/1  121/4/1 
f  122/1/1  124/2/1  125/3/1  123/4/1 
f  124/1/1  126/2/1  127/3/1  125/4/1 
f  126/1/1  128/2/1  129/3/1  127/4/1 
f  128/1/1  130/2/1  131/3/1  129/4/1 
f  130/1/1  132/2/1  133/3/1  131/4/1 
f  132/1/1  134/2/1  135/3/1  133/4/1 
f  134/1/1  136/2/1  137/3/1  135/4/1 
f  136/1/1  138/2/1  139/3/1  137/4/1 
f  138/1/1  140/2/1  141/3/1  139/4/1 
f  140/1/1  142/2/1  143/3/1  141/4/1 
f  142/1/1  144/2/1  145/3/1  143/4/1 
f  144/1/1  146/2/1  147/3/1  145/4/1 
f  146/1/1  148/2/1  149/3/1  147/4/1 
f  148/1/1  150/2/1  151/3/1  149/4/1 
f  150/1/1  152/2/1  153/3/1  151/4/1 
f  152/1/1  154/2/1  155/3/1  153/4/1 
f  154/1/1  156/2/1  157/3/1  155/4/1 
f  156/1/1  158/2/1  159/3/1  157/4/1 
f  158/1/1  160/2/1  161/3/1  159/4/1 
f  160/1/1  162/2/1  163/3/1  161/4/1 
f  162/1/1  164/2/1  165/3/1  163/4/1 
f  164/1/1  166/2/1  167/3/1  165/4/1 
f  166/1/1  168/2/1  169/3/1  167/4/1 
f  168/1/1  170/2/1  171/3/1  169/4/1 
f  170/1/1  172/2/1  173/3/1  171/4/1 
f  172/1/1  174/2/1  175/3/1  173/4/1 
f  174/1/1  176/2/1  177/3/1  175/4/1 
f  176/1/1  178/2/1  179/3/1  177/4/1 
f  178/1/1  180/2/1  181/3/1  179/4/1 
f  180/1/1  182/2/1  183/3/1  181/4/1 
f  182/1/1  184/2/1  185/3/1  183/4/1 
f  184/1/1  186/2/1  187/3/1  185/4/1 
f  186/1/1  188/2/1  189/3/1  187/4/1 
f  188/1/1  190/2/1  191/3/1  189/4/1 
f  190/1/1  192/2/1  193/3/1  191/4/1 
f  192/1/1  194/2/1  195/3/1  193/4/1 
f  194/1/1  196/2/1  197/3/1  195/4/1 
f  196/1/1  198/2/1  199/3/1  197/4/1 
f  198/1/1  200/2/1  201/3/1  199/4/1 
f  200/1/1  202/2/1  203/3/1  201/4/1 
f  202/1/1  204/2/1  205/3/1  203/4/1 
f  204/1/1  206/2/1  207/3/1  205/4/1 
f  206/1/1  208/2/1  209/3/1  207/4/1 
f  208/1/1  210/2/1  211/3/1  209/4/1 
f  210/1/1  212/2/1  213/3/1  211/4/1 
f  212/1/1  214/2/1  215/3/1  213/4/1 
f  214/1/1  216/2/1  217/3/1  215/4/1 
f  216/1/1  218/2/1  219/3/1  217/4/1 
f  218/1/1  220/2/1  221/3/1  219/4/1 
f  220/1/1  222/2/1  55/3/1  221/4/1 
f  222/5/1  223/6/1  56/7/1  55/8/1 
f  223/5/1  224/6/1  57/7/1  56/8/1 
f  224/5/1  225/6/1  59/7/1  57/8/1 
f  225/5/1  226/6/1  61/7/1  59/8/1 
f  226/5/1  227/6/1  63/7/1  61/8/1 
f  227/5/1  228/6/1  65/7/1  63/8/1 
f  228/5/1  229/6/1  67/7/1  65/8/1 
f  229/5/1  230/6/1  69/7/1  67/8/1 
f  230/5/1  231/6/1  71/7/1  69/8/1 
f  231/5/1  232/6/1  73/7/1  71/8/1 
f  232/5/1  233/6/1  75/7/1  73/8/1 
f  233/5/1  234/6/1  77/7/1  75/8/1 
f  234/1/1  235/2/1  78/3/1  77/4/1 
f  235/1/1  236/2/1  237/3/1  78/4/1 
f  236/1/1  238/2/1  239/3/1  237/4/1 
f  238/1/1  240/2/1  241/3/1  239/4/1 
f  240/1/1  242/2/1  243/3/1  241/4/1 
f  242/1/1  244/2/1  79/3/1  243/4/1 
f  244/1/1  245/2/1  80/3/1  79/4/1 
g mesh_[01]_[00]
f  246/17/1  247/18/1  248/19/1  249/20/1 
f  250/21/1  251/22/1  252/23/1  253/24/1 
f  254/25/1  255/26/1  256/27/1  257/28/1 
f  258/21/1  259/22/1  251/23/1  250/24/1 
f  260/21/1  261/22/1  259/23/1  258/24/1 
f  262/25/1  263/26/1  264/27/1  265/28/1 
f  266/21/1  267/22/1  268/23/1  269/24/1 
f  267/21/1  270/22/1  271/23/1  268/24/1 
f  270/21/1  272/22/1  273/23/1  271/24/1 
f  272/21/1  274/22/1  275/23/1  273/24/1 
f  274/21/1  276/22/1  277/23/1  275/24/1 
f  276/21/1  278/22/1  279/23/1  277/24/1 
f  278/21/1  280/22/1  281/23/1  279/24/1 
f  282/21/1  283/22/1  261/23/1  260/24/1 
f  284/21/1  285/22/1  283/23/1  282/24/1 
f  286/21/1  287/22/1  288/23/1  289/24/1 
f  287/21/1  290/22/1  291/23/1  288/24/1 
f  290/21/1  292/22/1  293/23/1  291/24/1 
f  292/21/1  294/22/1  295/23/1  293/24/1 
f  294/21/1  296/22/1  297/23/1  295/24/1 
f  296/21/1  298/22/1  299/23/1  297/24/1 
f  298/21/1  300/22/1  301/23/1  299/24/1 
f  300/21/1  302/22/1  303/23/1  301/24/1 
f  302/21/1  304/22/1  305/23/1  303/24/1 
f  306/21/1  307/22/1  285/23/1  284/24/1 
f  109/29/1  111/30/1  308/31/1  309/32/1 
f  113/29/1  115/30/1  310/31/1  311/32/1 
f  117/29/1  119/30/1  312/31/1  313/32/1 
f  121/29/1  123/30/1  314/31/1  315/32/1 
f  125/29/1  127/30/1  316/31/1  317/32/1 
f  129/29/1  131/30/1  306/31/1  318/32/1 
f  131/33/1  133/34/1  307/35/1  306/36/1 
f  133/29/1  135/30/1  319/31/1  307/32/1 
f  137/29/1  139/30/1  320/31/1  321/32/1 
f  141/29/1  143/30/1  322/31/1  323/32/1 
f  145/29/1  147/30/1  324/31/1  325/32/1 
f  149/29/1  151/30/1  326/31/1  327/32/1 
f  153/29/1  155/30/1  328/31/1  329/32/1 
f  157/29/1  159/30/1  330/31/1  331/32/1 
f  161/29/1  163/30/1  332/31/1  333/32/1 
f  165/29/1  167/30/1  334/31/1  335/32/1 
f  169/29/1  171/30/1  336/31/1  337/32/1 
f  173/29/1  175/30/1  338/31/1  339/32/1 
f  177/29/1  179/30/1  340/31/1  341/32/1 
f  181/29/1  183/30/1  342/31/1  343/32/1 
f  185/29/1  187/30/1  344/31/1  345/32/1 
f  189/29/1  191/30/1  346/31/1  347/32/1 
f  193/29/1  195/30/1  348/31/1  349/32/1 
f  197/29/1  199/30/1  350/31/1  351/32/1 
f  201/29/1  203/30/1  352/31/1  353/32/1 
f  205/29/1  207/30/1  354/31/1  355/32/1 
f  209/29/1  211/30/1  356/31/1  357/32/1 
f  213/29/1  215/30/1  358/31/1  359/32/1 
f  217/29/1  219/30/1  360/31/1  361/32/1 
f  221/29/1  55/30/1  21/31/1  362/32/1 
g mesh_[02]_[00]
f  4/37/1  3/38/1  363/39/1  364/40/1 
f  7/37/1  1/38/1  4/39/1  365/40/1 
f  14/37/1  9/38/1  5/39/1  366/40/1 
f  24/37/1  23/38/1  367/39/1  368/40/1 
f  28/37/1  27/38/1  369/39/1  370/40/1 
f  31/37/1  17/38/1  12/39/1  371/40/1 
f  105/37/1  107/38/1  372/39/1  373/40/1 
f  135/41/1  137/42/1  321/43/1  319/44/1 
f  139/41/1  141/42/1  323/43/1  320/44/1 
f  143/41/1  145/42/1  325/43/1  322/44/1 
f  147/41/1  149/42/1  327/43/1  324/44/1 
f  151/41/1  153/42/1  329/43/1  326/44/1 
f  155/41/1  157/42/1  331/43/1  328/44/1 
f  159/41/1  161/42/1  333/43/1  330/44/1 
f  163/41/1  165/42/1  335/43/1  332/44/1 
f  167/41/1  169/42/1  337/43/1  334/44/1 
f  171/41/1  173/42/1  339/43/1  336/44/1 
f  175/41/1  177/42/1  341/43/1  338/44/1 
f  179/41/1  181/42/1  343/43/1  340/44/1 
f  183/41/1  185/42/1  345/43/1  342/44/1 
f  187/41/1  189/42/1  347/43/1  344/44/1 
f  191/41/1  193/42/1  349/43/1  346/44/1 
f  195/41/1  197/42/1  351/43/1  348/44/1 
f  199/41/1  201/42/1  353/43/1  350/44/1 
f  203/41/1  205/42/1  355/43/1  352/44/1 
f  207/41/1  209/42/1  357/43/1  354/44/1 
f  211/41/1  213/42/1  359/43/1  356/44/1 
f  215/41/1  217/42/1  361/43/1  358/44/1 
f  219/41/1  221/42/1  362/43/1  360/44/1 
f  239/37/1  241/38/1  374/39/1  375/40/1 
