# Wavefront OBJ file automatically generated by Tiled2Unity

# Vertices (Count = 427)
v -2100 -210 0
v -2170 -210 0
v -2170 -140 0
v -2100 -140 0
v -2240 -210 0
v -2240 -140 0
v -2310 -210 0
v -2310 -140 0
v -2380 -210 0
v -2380 -140 0
v -2450 -210 0
v -2450 -140 0
v -2520 -210 0
v -2520 -140 0
v -6580 -210 0
v -6650 -210 0
v -6650 -140 0
v -6580 -140 0
v 0 -280 0
v -70 -280 0
v -70 -210 0
v 0 -210 0
v -140 -280 0
v -140 -210 0
v -210 -280 0
v -210 -210 0
v -2100 -280 0
v -2170 -280 0
v -2240 -280 0
v -2310 -280 0
v -2380 -280 0
v -2450 -280 0
v -2520 -280 0
v -5460 -280 0
v -5530 -280 0
v -5530 -210 0
v -5460 -210 0
v -5600 -280 0
v -5600 -210 0
v -5670 -280 0
v -5670 -210 0
v -5740 -280 0
v -5740 -210 0
v -5810 -280 0
v -5810 -210 0
v -5880 -280 0
v -5880 -210 0
v -5950 -280 0
v -5950 -210 0
v -6020 -280 0
v -6020 -210 0
v -6090 -280 0
v -6090 -210 0
v -6370 -280 0
v -6440 -280 0
v -6440 -210 0
v -6370 -210 0
v -6510 -280 0
v -6510 -210 0
v -6580 -280 0
v -6650 -280 0
v -6720 -280 0
v -6720 -210 0
v 0 -350 0
v -70 -350 0
v -140 -350 0
v -210 -350 0
v -280 -350 0
v -280 -280 0
v -350 -350 0
v -350 -280 0
v -420 -350 0
v -420 -280 0
v -490 -350 0
v -490 -280 0
v -2170 -350 0
v -2240 -350 0
v -2310 -350 0
v -2380 -350 0
v -3080 -350 0
v -3150 -350 0
v -3150 -280 0
v -3080 -280 0
v -3220 -350 0
v -3220 -280 0
v -3290 -350 0
v -3290 -280 0
v -3920 -350 0
v -3990 -350 0
v -3990 -280 0
v -3920 -280 0
v -4060 -350 0
v -4060 -280 0
v -4130 -350 0
v -4130 -280 0
v -5250 -350 0
v -5320 -350 0
v -5320 -280 0
v -5250 -280 0
v -5390 -350 0
v -5390 -280 0
v -5460 -350 0
v -5880 -350 0
v -5950 -350 0
v -6020 -350 0
v -6090 -350 0
v -6440 -350 0
v -6510 -350 0
v -6580 -350 0
v -6650 -350 0
v -6720 -350 0
v 0 -420 0
v -70 -420 0
v -140 -420 0
v -210 -420 0
v -280 -420 0
v -350 -420 0
v -420 -420 0
v -490 -420 0
v -560 -420 0
v -560 -350 0
v -630 -420 0
v -630 -350 0
v -700 -420 0
v -700 -350 0
v -2170 -420 0
v -2240 -420 0
v -2310 -420 0
v -2800 -420 0
v -2870 -420 0
v -2870 -350 0
v -2800 -350 0
v -2940 -420 0
v -2940 -350 0
v -3010 -420 0
v -3010 -350 0
v -3080 -420 0
v -3150 -420 0
v -3220 -420 0
v -3290 -420 0
v -3430 -420 0
v -3500 -420 0
v -3500 -350 0
v -3430 -350 0
v -3570 -420 0
v -3570 -350 0
v -3640 -420 0
v -3640 -350 0
v -3850 -420 0
v -3920 -420 0
v -3850 -350 0
v -3990 -420 0
v -4060 -420 0
v -4130 -420 0
v -4200 -420 0
v -4200 -350 0
v -5250 -420 0
v -5320 -420 0
v -5390 -420 0
v -5460 -420 0
v -5880 -420 0
v -5950 -420 0
v -6020 -420 0
v -6090 -420 0
v -6580 -420 0
v -6650 -420 0
v -6720 -420 0
v 0 -490 0
v -70 -490 0
v -140 -490 0
v -210 -490 0
v -280 -490 0
v -350 -490 0
v -420 -490 0
v -490 -490 0
v -560 -490 0
v -630 -490 0
v -700 -490 0
v -770 -490 0
v -770 -420 0
v -840 -490 0
v -840 -420 0
v -910 -490 0
v -910 -420 0
v -980 -490 0
v -980 -420 0
v -2170 -490 0
v -2240 -490 0
v -2310 -490 0
v -2800 -490 0
v -2870 -490 0
v -2940 -490 0
v -3010 -490 0
v -3150 -490 0
v -3220 -490 0
v -3430 -490 0
v -3500 -490 0
v -3570 -490 0
v -3640 -490 0
v -3780 -490 0
v -3850 -490 0
v -3780 -420 0
v -3920 -490 0
v -3990 -490 0
v -4060 -490 0
v -4130 -490 0
v -4200 -490 0
v -4270 -490 0
v -4270 -420 0
v -4340 -490 0
v -4340 -420 0
v -4410 -490 0
v -4410 -420 0
v -4480 -490 0
v -4480 -420 0
v -4550 -490 0
v -4550 -420 0
v -4620 -490 0
v -4620 -420 0
v -4690 -490 0
v -4690 -420 0
v -4760 -490 0
v -4760 -420 0
v -4830 -490 0
v -4830 -420 0
v -4900 -490 0
v -4900 -420 0
v -4970 -490 0
v -4970 -420 0
v -5040 -490 0
v -5040 -420 0
v -5110 -490 0
v -5110 -420 0
v -5180 -490 0
v -5180 -420 0
v -5250 -490 0
v -5320 -490 0
v -5390 -490 0
v -5460 -490 0
v -5880 -490 0
v -5950 -490 0
v -6020 -490 0
v -6090 -490 0
v -6650 -490 0
v -6720 -490 0
v 0 -560 0
v -70 -560 0
v -140 -560 0
v -210 -560 0
v -280 -560 0
v -350 -560 0
v -420 -560 0
v -490 -560 0
v -560 -560 0
v -630 -560 0
v -700 -560 0
v -770 -560 0
v -840 -560 0
v -910 -560 0
v -980 -560 0
v -1050 -560 0
v -1050 -490 0
v -1120 -560 0
v -1120 -490 0
v -1190 -560 0
v -1190 -490 0
v -1260 -560 0
v -1260 -490 0
v -1330 -560 0
v -1330 -490 0
v -1400 -560 0
v -1400 -490 0
v -1470 -560 0
v -1470 -490 0
v -1540 -560 0
v -1540 -490 0
v -1610 -560 0
v -1610 -490 0
v -1680 -560 0
v -1680 -490 0
v -1750 -560 0
v -1750 -490 0
v -2240 -560 0
v -2310 -560 0
v -2380 -560 0
v -2380 -490 0
v -2450 -560 0
v -2450 -490 0
v -2520 -560 0
v -2520 -490 0
v -2590 -560 0
v -2590 -490 0
v -2660 -560 0
v -2660 -490 0
v -2730 -560 0
v -2730 -490 0
v -2800 -560 0
v -3500 -560 0
v -3570 -560 0
v -3710 -560 0
v -3780 -560 0
v -3710 -490 0
v -3850 -560 0
v -3920 -560 0
v -3990 -560 0
v -4060 -560 0
v -4130 -560 0
v -4200 -560 0
v -4270 -560 0
v -4340 -560 0
v -4410 -560 0
v -4480 -560 0
v -4550 -560 0
v -4620 -560 0
v -4690 -560 0
v -4760 -560 0
v -4830 -560 0
v -4900 -560 0
v -4970 -560 0
v -5040 -560 0
v -5110 -560 0
v -5250 -560 0
v -5320 -560 0
v -5390 -560 0
v -5460 -560 0
v -5880 -560 0
v -5950 -560 0
v -6020 -560 0
v -6090 -560 0
v -2240 -70 0
v -2310 -70 0
v -2310 0 0
v -2240 0 0
v -5950 -70 0
v -6020 -70 0
v -6020 0 0
v -5950 0 0
v -6440 -70 0
v -6510 -70 0
v -6510 0 0
v -6440 0 0
v -6580 -70 0
v -6580 0 0
v -210 -140 0
v -280 -140 0
v -280 -70 0
v -210 -70 0
v -2450 -70 0
v -2380 -70 0
v -3990 -140 0
v -4060 -140 0
v -4060 -70 0
v -3990 -70 0
v -5320 -140 0
v -5390 -140 0
v -5390 -70 0
v -5320 -70 0
v -280 -210 0
v -350 -210 0
v -350 -140 0
v -420 -210 0
v -420 -140 0
v -490 -210 0
v -490 -140 0
v -1960 -210 0
v -2030 -210 0
v -2030 -140 0
v -1960 -140 0
v -3150 -210 0
v -3220 -210 0
v -3220 -140 0
v -3150 -140 0
v -700 -280 0
v -770 -280 0
v -770 -210 0
v -700 -210 0
v -840 -280 0
v -840 -210 0
v -910 -280 0
v -910 -210 0
v -980 -280 0
v -980 -210 0
v -2870 -280 0
v -2940 -280 0
v -2940 -210 0
v -2870 -210 0
v -4830 -280 0
v -4900 -280 0
v -4900 -210 0
v -4830 -210 0
v -4970 -280 0
v -4970 -210 0
v -5040 -280 0
v -5040 -210 0
v -1610 -350 0
v -1680 -350 0
v -1680 -280 0
v -1610 -280 0
v -2520 -420 0
v -2590 -420 0
v -2590 -350 0
v -2520 -350 0
v -4760 -350 0
v -4690 -350 0
v -1190 -420 0
v -1120 -420 0
v -1820 -560 0
v -1820 -490 0
v -1890 -560 0
v -1890 -490 0
v -1960 -560 0
v -1960 -490 0
v -140 -140 0
v -6020 -140 0
v -5950 -140 0
v -6510 -140 0
v -6440 -140 0
v -4060 -210 0
v -3990 -210 0
v -5390 -210 0
v -5320 -210 0
v -630 -280 0
v -3570 -280 0
v -3500 -280 0
v -1050 -420 0
v -1680 -420 0
v -1610 -420 0

# Texture Coorindates (Count = 60)
vt 0.0001220703 0.5899658
vt 0.1365967 0.5899658
vt 0.1365967 0.7264404
vt 0.0001220703 0.7264404
vt 0.4102783 0.7266846
vt 0.5467529 0.7266846
vt 0.5467529 0.8631592
vt 0.4102783 0.8631592
vt 0.2735596 0.5899658
vt 0.4100342 0.5899658
vt 0.4100342 0.7264404
vt 0.2735596 0.7264404
vt 0.5469971 0.1798096
vt 0.6834717 0.1798096
vt 0.6834717 0.3162842
vt 0.5469971 0.3162842
vt 0.4102783 0.5899658
vt 0.5467529 0.5899658
vt 0.5467529 0.7264404
vt 0.4102783 0.7264404
vt 0.2735596 0.3165283
vt 0.4100342 0.3165283
vt 0.4100342 0.4530029
vt 0.2735596 0.4530029
vt 0.1368408 0.5899658
vt 0.2733154 0.5899658
vt 0.2733154 0.7264404
vt 0.1368408 0.7264404
vt 0.6837158 0.1798096
vt 0.8201904 0.1798096
vt 0.8201904 0.3162842
vt 0.6837158 0.3162842
vt 0.8204346 0.8634033
vt 0.9569092 0.8634033
vt 0.9569092 0.9998779
vt 0.8204346 0.9998779
vt 0.8204346 0.1798096
vt 0.9569092 0.1798096
vt 0.9569092 0.3162842
vt 0.8204346 0.3162842
vt 0.6837158 0.4532471
vt 0.8201904 0.4532471
vt 0.8201904 0.5897217
vt 0.6837158 0.5897217
vt 0.0001220703 0.4532471
vt 0.1365967 0.4532471
vt 0.1365967 0.5897217
vt 0.0001220703 0.5897217
vt 0.0001220703 0.8634033
vt 0.1365967 0.8634033
vt 0.1365967 0.9998779
vt 0.0001220703 0.9998779
vt 0.6837158 0.7266846
vt 0.8201904 0.7266846
vt 0.8201904 0.8631592
vt 0.6837158 0.8631592
vt 0.5469971 0.8634033
vt 0.6834717 0.8634033
vt 0.6834717 0.9998779
vt 0.5469971 0.9998779

# Normal
vn 0 0 -1

# Groups (Count = 3)
g mesh_[00]_[00]
f  1/1/1  2/2/1  3/3/1  4/4/1 
f  2/1/1  5/2/1  6/3/1  3/4/1 
f  5/1/1  7/2/1  8/3/1  6/4/1 
f  7/1/1  9/2/1  10/3/1  8/4/1 
f  9/1/1  11/2/1  12/3/1  10/4/1 
f  11/1/1  13/2/1  14/3/1  12/4/1 
f  15/5/1  16/6/1  17/7/1  18/8/1 
f  19/1/1  20/2/1  21/3/1  22/4/1 
f  20/1/1  23/2/1  24/3/1  21/4/1 
f  23/1/1  25/2/1  26/3/1  24/4/1 
f  27/9/1  28/10/1  2/11/1  1/12/1 
f  28/9/1  29/10/1  5/11/1  2/12/1 
f  29/9/1  30/10/1  7/11/1  5/12/1 
f  30/9/1  31/10/1  9/11/1  7/12/1 
f  31/9/1  32/10/1  11/11/1  9/12/1 
f  32/9/1  33/10/1  13/11/1  11/12/1 
f  34/13/1  35/14/1  36/15/1  37/16/1 
f  35/13/1  38/14/1  39/15/1  36/16/1 
f  38/13/1  40/14/1  41/15/1  39/16/1 
f  40/13/1  42/14/1  43/15/1  41/16/1 
f  42/13/1  44/14/1  45/15/1  43/16/1 
f  44/13/1  46/14/1  47/15/1  45/16/1 
f  46/17/1  48/18/1  49/19/1  47/20/1 
f  48/17/1  50/18/1  51/19/1  49/20/1 
f  50/17/1  52/18/1  53/19/1  51/20/1 
f  54/17/1  55/18/1  56/19/1  57/20/1 
f  55/17/1  58/18/1  59/19/1  56/20/1 
f  58/17/1  60/18/1  15/19/1  59/20/1 
f  60/17/1  61/18/1  16/19/1  15/20/1 
f  61/17/1  62/18/1  63/19/1  16/20/1 
f  64/9/1  65/10/1  20/11/1  19/12/1 
f  65/9/1  66/10/1  23/11/1  20/12/1 
f  66/9/1  67/10/1  25/11/1  23/12/1 
f  67/21/1  68/22/1  69/23/1  25/24/1 
f  68/21/1  70/22/1  71/23/1  69/24/1 
f  70/21/1  72/22/1  73/23/1  71/24/1 
f  72/21/1  74/22/1  75/23/1  73/24/1 
f  76/9/1  77/10/1  29/11/1  28/12/1 
f  77/9/1  78/10/1  30/11/1  29/12/1 
f  78/9/1  79/10/1  31/11/1  30/12/1 
f  80/1/1  81/2/1  82/3/1  83/4/1 
f  81/1/1  84/2/1  85/3/1  82/4/1 
f  84/1/1  86/2/1  87/3/1  85/4/1 
f  88/1/1  89/2/1  90/3/1  91/4/1 
f  89/1/1  92/2/1  93/3/1  90/4/1 
f  92/1/1  94/2/1  95/3/1  93/4/1 
f  96/17/1  97/18/1  98/19/1  99/20/1 
f  97/17/1  100/18/1  101/19/1  98/20/1 
f  100/17/1  102/18/1  34/19/1  101/20/1 
f  103/25/1  104/26/1  48/27/1  46/28/1 
f  104/25/1  105/26/1  50/27/1  48/28/1 
f  105/25/1  106/26/1  52/27/1  50/28/1 
f  107/25/1  108/26/1  58/27/1  55/28/1 
f  108/25/1  109/26/1  60/27/1  58/28/1 
f  109/25/1  110/26/1  61/27/1  60/28/1 
f  110/25/1  111/26/1  62/27/1  61/28/1 
f  112/9/1  113/10/1  65/11/1  64/12/1 
f  113/9/1  114/10/1  66/11/1  65/12/1 
f  114/9/1  115/10/1  67/11/1  66/12/1 
f  115/9/1  116/10/1  68/11/1  67/12/1 
f  116/9/1  117/10/1  70/11/1  68/12/1 
f  117/9/1  118/10/1  72/11/1  70/12/1 
f  118/9/1  119/10/1  74/11/1  72/12/1 
f  119/1/1  120/2/1  121/3/1  74/4/1 
f  120/1/1  122/2/1  123/3/1  121/4/1 
f  122/1/1  124/2/1  125/3/1  123/4/1 
f  126/9/1  127/10/1  77/11/1  76/12/1 
f  127/9/1  128/10/1  78/11/1  77/12/1 
f  129/1/1  130/2/1  131/3/1  132/4/1 
f  130/1/1  133/2/1  134/3/1  131/4/1 
f  133/1/1  135/2/1  136/3/1  134/4/1 
f  137/9/1  138/10/1  81/11/1  80/12/1 
f  138/9/1  139/10/1  84/11/1  81/12/1 
f  139/9/1  140/10/1  86/11/1  84/12/1 
f  141/1/1  142/2/1  143/3/1  144/4/1 
f  142/1/1  145/2/1  146/3/1  143/4/1 
f  145/1/1  147/2/1  148/3/1  146/4/1 
f  149/1/1  150/2/1  88/3/1  151/4/1 
f  150/9/1  152/10/1  89/11/1  88/12/1 
f  152/9/1  153/10/1  92/11/1  89/12/1 
f  153/9/1  154/10/1  94/11/1  92/12/1 
f  154/1/1  155/2/1  156/3/1  94/4/1 
f  157/25/1  158/26/1  97/27/1  96/28/1 
f  158/25/1  159/26/1  100/27/1  97/28/1 
f  159/25/1  160/26/1  102/27/1  100/28/1 
f  161/25/1  162/26/1  104/27/1  103/28/1 
f  162/25/1  163/26/1  105/27/1  104/28/1 
f  163/25/1  164/26/1  106/27/1  105/28/1 
f  165/25/1  166/26/1  110/27/1  109/28/1 
f  166/25/1  167/26/1  111/27/1  110/28/1 
f  168/9/1  169/10/1  113/11/1  112/12/1 
f  169/9/1  170/10/1  114/11/1  113/12/1 
f  170/9/1  171/10/1  115/11/1  114/12/1 
f  171/9/1  172/10/1  116/11/1  115/12/1 
f  172/9/1  173/10/1  117/11/1  116/12/1 
f  173/9/1  174/10/1  118/11/1  117/12/1 
f  174/9/1  175/10/1  119/11/1  118/12/1 
f  175/9/1  176/10/1  120/11/1  119/12/1 
f  176/9/1  177/10/1  122/11/1  120/12/1 
f  177/9/1  178/10/1  124/11/1  122/12/1 
f  178/21/1  179/22/1  180/23/1  124/24/1 
f  179/21/1  181/22/1  182/23/1  180/24/1 
f  181/21/1  183/22/1  184/23/1  182/24/1 
f  183/21/1  185/22/1  186/23/1  184/24/1 
f  187/9/1  188/10/1  127/11/1  126/12/1 
f  188/9/1  189/10/1  128/11/1  127/12/1 
f  190/9/1  191/10/1  130/11/1  129/12/1 
f  191/9/1  192/10/1  133/11/1  130/12/1 
f  192/9/1  193/10/1  135/11/1  133/12/1 
f  194/9/1  195/10/1  139/11/1  138/12/1 
f  196/9/1  197/10/1  142/11/1  141/12/1 
f  197/9/1  198/10/1  145/11/1  142/12/1 
f  198/9/1  199/10/1  147/11/1  145/12/1 
f  200/1/1  201/2/1  149/3/1  202/4/1 
f  201/9/1  203/10/1  150/11/1  149/12/1 
f  203/9/1  204/10/1  152/11/1  150/12/1 
f  204/9/1  205/10/1  153/11/1  152/12/1 
f  205/9/1  206/10/1  154/11/1  153/12/1 
f  206/9/1  207/10/1  155/11/1  154/12/1 
f  207/1/1  208/2/1  209/3/1  155/4/1 
f  208/1/1  210/2/1  211/3/1  209/4/1 
f  210/1/1  212/2/1  213/3/1  211/4/1 
f  212/1/1  214/2/1  215/3/1  213/4/1 
f  214/1/1  216/2/1  217/3/1  215/4/1 
f  216/1/1  218/2/1  219/3/1  217/4/1 
f  218/1/1  220/2/1  221/3/1  219/4/1 
f  220/1/1  222/2/1  223/3/1  221/4/1 
f  222/1/1  224/2/1  225/3/1  223/4/1 
f  224/1/1  226/2/1  227/3/1  225/4/1 
f  226/1/1  228/2/1  229/3/1  227/4/1 
f  228/1/1  230/2/1  231/3/1  229/4/1 
f  230/1/1  232/2/1  233/3/1  231/4/1 
f  232/13/1  234/14/1  235/15/1  233/16/1 
f  234/13/1  236/14/1  157/15/1  235/16/1 
f  236/25/1  237/26/1  158/27/1  157/28/1 
f  237/25/1  238/26/1  159/27/1  158/28/1 
f  238/25/1  239/26/1  160/27/1  159/28/1 
f  240/25/1  241/26/1  162/27/1  161/28/1 
f  241/25/1  242/26/1  163/27/1  162/28/1 
f  242/25/1  243/26/1  164/27/1  163/28/1 
f  244/25/1  245/26/1  167/27/1  166/28/1 
f  246/9/1  247/10/1  169/11/1  168/12/1 
f  247/9/1  248/10/1  170/11/1  169/12/1 
f  248/9/1  249/10/1  171/11/1  170/12/1 
f  249/9/1  250/10/1  172/11/1  171/12/1 
f  250/9/1  251/10/1  173/11/1  172/12/1 
f  251/9/1  252/10/1  174/11/1  173/12/1 
f  252/9/1  253/10/1  175/11/1  174/12/1 
f  253/9/1  254/10/1  176/11/1  175/12/1 
f  254/9/1  255/10/1  177/11/1  176/12/1 
f  255/9/1  256/10/1  178/11/1  177/12/1 
f  256/9/1  257/10/1  179/11/1  178/12/1 
f  257/9/1  258/10/1  181/11/1  179/12/1 
f  258/9/1  259/10/1  183/11/1  181/12/1 
f  259/9/1  260/10/1  185/11/1  183/12/1 
f  260/1/1  261/2/1  262/3/1  185/4/1 
f  261/1/1  263/2/1  264/3/1  262/4/1 
f  263/1/1  265/2/1  266/3/1  264/4/1 
f  265/1/1  267/2/1  268/3/1  266/4/1 
f  267/1/1  269/2/1  270/3/1  268/4/1 
f  269/21/1  271/22/1  272/23/1  270/24/1 
f  271/21/1  273/22/1  274/23/1  272/24/1 
f  273/21/1  275/22/1  276/23/1  274/24/1 
f  275/1/1  277/2/1  278/3/1  276/4/1 
f  277/1/1  279/2/1  280/3/1  278/4/1 
f  279/1/1  281/2/1  282/3/1  280/4/1 
f  283/9/1  284/10/1  189/11/1  188/12/1 
f  284/1/1  285/2/1  286/3/1  189/4/1 
f  285/1/1  287/2/1  288/3/1  286/4/1 
f  287/21/1  289/22/1  290/23/1  288/24/1 
f  289/21/1  291/22/1  292/23/1  290/24/1 
f  291/21/1  293/22/1  294/23/1  292/24/1 
f  293/1/1  295/2/1  296/3/1  294/4/1 
f  295/21/1  297/22/1  190/23/1  296/24/1 
f  298/9/1  299/10/1  198/11/1  197/12/1 
f  300/1/1  301/2/1  200/3/1  302/4/1 
f  301/9/1  303/10/1  201/11/1  200/12/1 
f  303/9/1  304/10/1  203/11/1  201/12/1 
f  304/9/1  305/10/1  204/11/1  203/12/1 
f  305/9/1  306/10/1  205/11/1  204/12/1 
f  306/9/1  307/10/1  206/11/1  205/12/1 
f  307/9/1  308/10/1  207/11/1  206/12/1 
f  308/9/1  309/10/1  208/11/1  207/12/1 
f  309/9/1  310/10/1  210/11/1  208/12/1 
f  310/9/1  311/10/1  212/11/1  210/12/1 
f  311/9/1  312/10/1  214/11/1  212/12/1 
f  312/9/1  313/10/1  216/11/1  214/12/1 
f  313/9/1  314/10/1  218/11/1  216/12/1 
f  314/9/1  315/10/1  220/11/1  218/12/1 
f  315/9/1  316/10/1  222/11/1  220/12/1 
f  316/9/1  317/10/1  224/11/1  222/12/1 
f  317/9/1  318/10/1  226/11/1  224/12/1 
f  318/9/1  319/10/1  228/11/1  226/12/1 
f  319/9/1  320/10/1  230/11/1  228/12/1 
f  320/9/1  321/10/1  232/11/1  230/12/1 
f  322/25/1  323/26/1  237/27/1  236/28/1 
f  323/25/1  324/26/1  238/27/1  237/28/1 
f  324/25/1  325/26/1  239/27/1  238/28/1 
f  326/25/1  327/26/1  241/27/1  240/28/1 
f  327/25/1  328/26/1  242/27/1  241/28/1 
f  328/25/1  329/26/1  243/27/1  242/28/1 
g mesh_[01]_[00]
f  330/29/1  331/30/1  332/31/1  333/32/1 
f  334/29/1  335/30/1  336/31/1  337/32/1 
f  338/33/1  339/34/1  340/35/1  341/36/1 
f  339/33/1  342/34/1  343/35/1  340/36/1 
f  344/29/1  345/30/1  346/31/1  347/32/1 
f  10/37/1  12/38/1  348/39/1  349/40/1 
f  350/29/1  351/30/1  352/31/1  353/32/1 
f  354/29/1  355/30/1  356/31/1  357/32/1 
f  358/33/1  359/34/1  360/35/1  345/36/1 
f  359/33/1  361/34/1  362/35/1  360/36/1 
f  361/33/1  363/34/1  364/35/1  362/36/1 
f  365/41/1  366/42/1  367/43/1  368/44/1 
f  366/41/1  1/42/1  4/43/1  367/44/1 
f  369/29/1  370/30/1  371/31/1  372/32/1 
f  373/29/1  374/30/1  375/31/1  376/32/1 
f  374/33/1  377/34/1  378/35/1  375/36/1 
f  377/33/1  379/34/1  380/35/1  378/36/1 
f  379/33/1  381/34/1  382/35/1  380/36/1 
f  383/29/1  384/30/1  385/31/1  386/32/1 
f  387/33/1  388/34/1  389/35/1  390/36/1 
f  388/33/1  391/34/1  392/35/1  389/36/1 
f  391/33/1  393/34/1  394/35/1  392/36/1 
f  395/33/1  396/34/1  397/35/1  398/36/1 
f  399/45/1  400/46/1  401/47/1  402/48/1 
f  221/37/1  223/38/1  403/39/1  404/40/1 
f  264/37/1  266/38/1  405/39/1  406/40/1 
f  281/21/1  407/22/1  408/23/1  282/24/1 
f  407/21/1  409/22/1  410/23/1  408/24/1 
f  409/21/1  411/22/1  412/23/1  410/24/1 
g mesh_[02]_[00]
f  6/49/1  8/50/1  331/51/1  330/52/1 
f  24/49/1  26/50/1  344/51/1  413/52/1 
f  49/53/1  51/54/1  414/55/1  415/56/1 
f  56/57/1  59/58/1  416/59/1  417/60/1 
f  82/49/1  85/50/1  370/51/1  369/52/1 
f  90/49/1  93/50/1  418/51/1  419/52/1 
f  98/53/1  101/54/1  420/55/1  421/56/1 
f  123/49/1  125/50/1  373/51/1  422/52/1 
f  131/49/1  134/50/1  384/51/1  383/52/1 
f  143/49/1  146/50/1  423/51/1  424/52/1 
f  185/49/1  262/50/1  425/51/1  186/52/1 
f  278/49/1  280/50/1  426/51/1  427/52/1 
