# Wavefront OBJ file automatically generated by Tiled2Unity

# Vertices (Count = 461)
v -3710 -140 0
v -3780 -140 0
v -3780 -70 0
v -3710 -70 0
v -3850 -140 0
v -3850 -70 0
v -3920 -140 0
v -3920 -70 0
v -1470 -210 0
v -1540 -210 0
v -1540 -140 0
v -1470 -140 0
v -1610 -210 0
v -1610 -140 0
v -1680 -210 0
v -1680 -140 0
v -2030 -210 0
v -2100 -210 0
v -2100 -140 0
v -2030 -140 0
v -2170 -210 0
v -2170 -140 0
v -2240 -210 0
v -2240 -140 0
v -5110 -210 0
v -5180 -210 0
v -5180 -140 0
v -5110 -140 0
v -5250 -210 0
v -5250 -140 0
v -5320 -210 0
v -5320 -140 0
v -5390 -210 0
v -5390 -140 0
v -5460 -210 0
v -5460 -140 0
v -5530 -210 0
v -5530 -140 0
v -5600 -210 0
v -5600 -140 0
v -5670 -210 0
v -5670 -140 0
v -5880 -210 0
v -5950 -210 0
v -5950 -140 0
v -5880 -140 0
v -6020 -210 0
v -6020 -140 0
v -6090 -210 0
v -6090 -140 0
v -6160 -210 0
v -6160 -140 0
v -6230 -210 0
v -6230 -140 0
v -6300 -210 0
v -6300 -140 0
v -980 -280 0
v -1050 -280 0
v -1050 -210 0
v -980 -210 0
v -1120 -280 0
v -1120 -210 0
v -1190 -280 0
v -1190 -210 0
v -2870 -280 0
v -2940 -280 0
v -2940 -210 0
v -2870 -210 0
v -3010 -280 0
v -3010 -210 0
v -3080 -280 0
v -3080 -210 0
v -3360 -280 0
v -3430 -280 0
v -3430 -210 0
v -3360 -210 0
v -3500 -280 0
v -3500 -210 0
v -3570 -280 0
v -3570 -210 0
v -4060 -280 0
v -4130 -280 0
v -4130 -210 0
v -4060 -210 0
v -4200 -280 0
v -4200 -210 0
v -4760 -280 0
v -4830 -280 0
v -4830 -210 0
v -4760 -210 0
v -4900 -280 0
v -4900 -210 0
v -560 -350 0
v -630 -350 0
v -630 -280 0
v -560 -280 0
v -700 -350 0
v -700 -280 0
v -770 -350 0
v -770 -280 0
v -2450 -350 0
v -2520 -350 0
v -2520 -280 0
v -2450 -280 0
v -2590 -350 0
v -2590 -280 0
v -2660 -350 0
v -2660 -280 0
v -4200 -350 0
v -4270 -350 0
v -4270 -280 0
v -4340 -350 0
v -4340 -280 0
v -4480 -350 0
v -4550 -350 0
v -4550 -280 0
v -4480 -280 0
v -4620 -350 0
v -4620 -280 0
v -4690 -350 0
v -4690 -280 0
v 0 -560 0
v -70 -560 0
v -70 -490 0
v 0 -490 0
v -140 -560 0
v -140 -490 0
v -210 -560 0
v -210 -490 0
v -280 -560 0
v -280 -490 0
v -350 -560 0
v -350 -490 0
v -420 -560 0
v -420 -490 0
v -490 -560 0
v -490 -490 0
v -560 -560 0
v -560 -490 0
v -630 -560 0
v -630 -490 0
v -700 -560 0
v -700 -490 0
v -770 -560 0
v -770 -490 0
v -840 -560 0
v -840 -490 0
v -910 -560 0
v -910 -490 0
v -980 -560 0
v -980 -490 0
v -1050 -560 0
v -1050 -490 0
v -1120 -560 0
v -1120 -490 0
v -1190 -560 0
v -1190 -490 0
v -1260 -560 0
v -1260 -490 0
v -1330 -560 0
v -1330 -490 0
v -1400 -560 0
v -1400 -490 0
v -1470 -560 0
v -1470 -490 0
v -1540 -560 0
v -1540 -490 0
v -1610 -560 0
v -1610 -490 0
v -1680 -560 0
v -1680 -490 0
v -1750 -560 0
v -1750 -490 0
v -1820 -560 0
v -1820 -490 0
v -1890 -560 0
v -1890 -490 0
v -1960 -560 0
v -1960 -490 0
v -2030 -560 0
v -2030 -490 0
v -2100 -560 0
v -2100 -490 0
v -2170 -560 0
v -2170 -490 0
v -2240 -560 0
v -2240 -490 0
v -2310 -560 0
v -2310 -490 0
v -2380 -560 0
v -2380 -490 0
v -2450 -560 0
v -2450 -490 0
v -2520 -560 0
v -2520 -490 0
v -2590 -560 0
v -2590 -490 0
v -2660 -560 0
v -2660 -490 0
v -2730 -560 0
v -2730 -490 0
v -2800 -560 0
v -2800 -490 0
v -2870 -560 0
v -2870 -490 0
v -2940 -560 0
v -2940 -490 0
v -3010 -560 0
v -3010 -490 0
v -3080 -560 0
v -3080 -490 0
v -3150 -560 0
v -3150 -490 0
v -3220 -560 0
v -3220 -490 0
v -3290 -560 0
v -3290 -490 0
v -3360 -560 0
v -3360 -490 0
v -3430 -560 0
v -3430 -490 0
v -3500 -560 0
v -3500 -490 0
v -3570 -560 0
v -3570 -490 0
v -3640 -560 0
v -3640 -490 0
v -3710 -560 0
v -3710 -490 0
v -3780 -560 0
v -3780 -490 0
v -3850 -560 0
v -3850 -490 0
v -3920 -560 0
v -3920 -490 0
v -3990 -560 0
v -3990 -490 0
v -4060 -560 0
v -4060 -490 0
v -4130 -560 0
v -4130 -490 0
v -4200 -560 0
v -4200 -490 0
v -4270 -560 0
v -4270 -490 0
v -4340 -560 0
v -4340 -490 0
v -4410 -560 0
v -4410 -490 0
v -4480 -560 0
v -4480 -490 0
v -4550 -560 0
v -4550 -490 0
v -4620 -560 0
v -4620 -490 0
v -4690 -560 0
v -4690 -490 0
v -4760 -560 0
v -4760 -490 0
v -4830 -560 0
v -4830 -490 0
v -4900 -560 0
v -4900 -490 0
v -4970 -560 0
v -4970 -490 0
v -5040 -560 0
v -5040 -490 0
v -5110 -560 0
v -5110 -490 0
v -5180 -560 0
v -5180 -490 0
v -5250 -560 0
v -5250 -490 0
v -5320 -560 0
v -5320 -490 0
v -5390 -560 0
v -5390 -490 0
v -5460 -560 0
v -5460 -490 0
v -5530 -560 0
v -5530 -490 0
v -5600 -560 0
v -5600 -490 0
v -5670 -560 0
v -5670 -490 0
v -5740 -560 0
v -5740 -490 0
v -5810 -560 0
v -5810 -490 0
v -5880 -560 0
v -5880 -490 0
v -5950 -560 0
v -5950 -490 0
v -6020 -560 0
v -6020 -490 0
v -6090 -560 0
v -6090 -490 0
v -6160 -560 0
v -6160 -490 0
v -6230 -560 0
v -6230 -490 0
v -6300 -560 0
v -6300 -490 0
v -6370 -560 0
v -6370 -490 0
v -6440 -560 0
v -6440 -490 0
v -6510 -560 0
v -6510 -490 0
v -6580 -560 0
v -6580 -490 0
v -6650 -560 0
v -6650 -490 0
v -6720 -560 0
v -6720 -490 0
v -1540 -70 0
v -1610 -70 0
v -1610 0 0
v -1540 0 0
v -2030 -70 0
v -2100 -70 0
v -2100 0 0
v -2030 0 0
v -2170 -70 0
v -2170 0 0
v -2240 -70 0
v -2240 0 0
v -2730 -70 0
v -2800 -70 0
v -2800 0 0
v -2730 0 0
v -3780 0 0
v -3710 0 0
v -3850 0 0
v -3920 0 0
v -5040 -70 0
v -5110 -70 0
v -5110 0 0
v -5040 0 0
v -5180 -70 0
v -5250 -70 0
v -5250 0 0
v -5180 0 0
v -5320 -70 0
v -5320 0 0
v -5390 -70 0
v -5390 0 0
v -5460 -70 0
v -5460 0 0
v -5530 -70 0
v -5530 0 0
v -5670 -70 0
v -5740 -70 0
v -5740 0 0
v -5670 0 0
v -5950 -70 0
v -6020 -70 0
v -6020 0 0
v -5950 0 0
v -6090 -70 0
v -6090 0 0
v -6160 -70 0
v -6160 0 0
v -6230 -70 0
v -6230 0 0
v -6510 -70 0
v -6580 -70 0
v -6580 0 0
v -6510 0 0
v -980 -140 0
v -1050 -140 0
v -1050 -70 0
v -980 -70 0
v -1120 -140 0
v -1120 -70 0
v -1190 -140 0
v -1190 -70 0
v -2730 -140 0
v -2800 -140 0
v -2870 -140 0
v -2940 -140 0
v -2940 -70 0
v -2870 -70 0
v -3010 -140 0
v -3010 -70 0
v -3080 -140 0
v -3080 -70 0
v -5040 -140 0
v -5740 -140 0
v -6510 -140 0
v -6580 -140 0
v -2730 -210 0
v -2800 -210 0
v -5040 -210 0
v -5740 -210 0
v -6510 -210 0
v -6580 -210 0
v -2730 -280 0
v -2800 -280 0
v -6510 -280 0
v -6580 -280 0
v -2730 -350 0
v -2800 -350 0
v -6510 -350 0
v -6580 -350 0
v -2730 -420 0
v -2800 -420 0
v -2940 -420 0
v -3010 -420 0
v -3010 -350 0
v -2940 -350 0
v -6510 -420 0
v -6580 -420 0
v -3500 -140 0
v -3430 -140 0
v -4830 -140 0
v -4760 -140 0
v -700 -210 0
v -630 -210 0
v -2590 -210 0
v -2520 -210 0
v -4270 -210 0
v -210 -420 0
v -140 -420 0
v -630 -420 0
v -560 -420 0
v -980 -420 0
v -910 -420 0
v -1260 -420 0
v -1190 -420 0
v -1540 -420 0
v -1470 -420 0
v -1820 -420 0
v -1750 -420 0
v -2100 -420 0
v -2030 -420 0
v -2380 -420 0
v -2310 -420 0
v -3220 -420 0
v -3150 -420 0
v -3290 -420 0
v -3710 -420 0
v -3640 -420 0
v -3850 -420 0
v -3780 -420 0
v -4480 -420 0
v -4410 -420 0
v -4690 -420 0
v -4620 -420 0
v -5040 -420 0
v -4970 -420 0
v -5320 -420 0
v -5250 -420 0
v -5600 -420 0
v -5530 -420 0
v -6090 -420 0
v -6020 -420 0
v -6300 -420 0
v -6230 -420 0
v -6720 -420 0
v -6650 -420 0

# Texture Coorindates (Count = 52)
vt 0.0001220703 0.5899658
vt 0.1365967 0.5899658
vt 0.1365967 0.7264404
vt 0.0001220703 0.7264404
vt 0.5469971 0.5899658
vt 0.6834717 0.5899658
vt 0.6834717 0.7264404
vt 0.5469971 0.7264404
vt 0.1368408 0.7266846
vt 0.2733154 0.7266846
vt 0.2733154 0.8631592
vt 0.1368408 0.8631592
vt 0.2735596 0.5899658
vt 0.4100342 0.5899658
vt 0.4100342 0.7264404
vt 0.2735596 0.7264404
vt 0.4102783 0.4532471
vt 0.5467529 0.4532471
vt 0.5467529 0.5897217
vt 0.4102783 0.5897217
vt 0.8204346 0.5899658
vt 0.9569092 0.5899658
vt 0.9569092 0.7264404
vt 0.8204346 0.7264404
vt 0.0001220703 0.4532471
vt 0.1365967 0.4532471
vt 0.1365967 0.5897217
vt 0.0001220703 0.5897217
vt 0.5469971 0.4532471
vt 0.6834717 0.4532471
vt 0.6834717 0.5897217
vt 0.5469971 0.5897217
vt 0.2735596 0.4532471
vt 0.4100342 0.4532471
vt 0.4100342 0.5897217
vt 0.2735596 0.5897217
vt 0.6837158 0.5899658
vt 0.8201904 0.5899658
vt 0.8201904 0.7264404
vt 0.6837158 0.7264404
vt 0.8204346 0.4532471
vt 0.9569092 0.4532471
vt 0.9569092 0.5897217
vt 0.8204346 0.5897217
vt 0.0001220703 0.8634033
vt 0.1365967 0.8634033
vt 0.1365967 0.9998779
vt 0.0001220703 0.9998779
vt 0.4102783 0.7266846
vt 0.5467529 0.7266846
vt 0.5467529 0.8631592
vt 0.4102783 0.8631592

# Normal
vn 0 0 -1

# Groups (Count = 3)
g mesh_[00]_[00]
f  1/1/1  2/2/1  3/3/1  4/4/1 
f  2/1/1  5/2/1  6/3/1  3/4/1 
f  5/1/1  7/2/1  8/3/1  6/4/1 
f  9/1/1  10/2/1  11/3/1  12/4/1 
f  10/1/1  13/2/1  14/3/1  11/4/1 
f  13/1/1  15/2/1  16/3/1  14/4/1 
f  17/1/1  18/2/1  19/3/1  20/4/1 
f  18/1/1  21/2/1  22/3/1  19/4/1 
f  21/1/1  23/2/1  24/3/1  22/4/1 
f  25/1/1  26/2/1  27/3/1  28/4/1 
f  26/1/1  29/2/1  30/3/1  27/4/1 
f  29/1/1  31/2/1  32/3/1  30/4/1 
f  31/1/1  33/2/1  34/3/1  32/4/1 
f  33/1/1  35/2/1  36/3/1  34/4/1 
f  35/1/1  37/2/1  38/3/1  36/4/1 
f  37/1/1  39/2/1  40/3/1  38/4/1 
f  39/1/1  41/2/1  42/3/1  40/4/1 
f  43/1/1  44/2/1  45/3/1  46/4/1 
f  44/1/1  47/2/1  48/3/1  45/4/1 
f  47/1/1  49/2/1  50/3/1  48/4/1 
f  49/1/1  51/2/1  52/3/1  50/4/1 
f  51/1/1  53/2/1  54/3/1  52/4/1 
f  53/1/1  55/2/1  56/3/1  54/4/1 
f  57/1/1  58/2/1  59/3/1  60/4/1 
f  58/1/1  61/2/1  62/3/1  59/4/1 
f  61/1/1  63/2/1  64/3/1  62/4/1 
f  65/1/1  66/2/1  67/3/1  68/4/1 
f  66/1/1  69/2/1  70/3/1  67/4/1 
f  69/1/1  71/2/1  72/3/1  70/4/1 
f  73/1/1  74/2/1  75/3/1  76/4/1 
f  74/1/1  77/2/1  78/3/1  75/4/1 
f  77/1/1  79/2/1  80/3/1  78/4/1 
f  81/1/1  82/2/1  83/3/1  84/4/1 
f  82/1/1  85/2/1  86/3/1  83/4/1 
f  87/1/1  88/2/1  89/3/1  90/4/1 
f  88/1/1  91/2/1  92/3/1  89/4/1 
f  93/1/1  94/2/1  95/3/1  96/4/1 
f  94/1/1  97/2/1  98/3/1  95/4/1 
f  97/1/1  99/2/1  100/3/1  98/4/1 
f  101/1/1  102/2/1  103/3/1  104/4/1 
f  102/1/1  105/2/1  106/3/1  103/4/1 
f  105/1/1  107/2/1  108/3/1  106/4/1 
f  109/1/1  110/2/1  111/3/1  85/4/1 
f  110/1/1  112/2/1  113/3/1  111/4/1 
f  114/1/1  115/2/1  116/3/1  117/4/1 
f  115/1/1  118/2/1  119/3/1  116/4/1 
f  118/1/1  120/2/1  121/3/1  119/4/1 
f  122/1/1  123/2/1  124/3/1  125/4/1 
f  123/1/1  126/2/1  127/3/1  124/4/1 
f  126/1/1  128/2/1  129/3/1  127/4/1 
f  128/1/1  130/2/1  131/3/1  129/4/1 
f  130/1/1  132/2/1  133/3/1  131/4/1 
f  132/1/1  134/2/1  135/3/1  133/4/1 
f  134/1/1  136/2/1  137/3/1  135/4/1 
f  136/1/1  138/2/1  139/3/1  137/4/1 
f  138/1/1  140/2/1  141/3/1  139/4/1 
f  140/1/1  142/2/1  143/3/1  141/4/1 
f  142/1/1  144/2/1  145/3/1  143/4/1 
f  144/1/1  146/2/1  147/3/1  145/4/1 
f  146/1/1  148/2/1  149/3/1  147/4/1 
f  148/1/1  150/2/1  151/3/1  149/4/1 
f  150/1/1  152/2/1  153/3/1  151/4/1 
f  152/1/1  154/2/1  155/3/1  153/4/1 
f  154/1/1  156/2/1  157/3/1  155/4/1 
f  156/1/1  158/2/1  159/3/1  157/4/1 
f  158/1/1  160/2/1  161/3/1  159/4/1 
f  160/1/1  162/2/1  163/3/1  161/4/1 
f  162/1/1  164/2/1  165/3/1  163/4/1 
f  164/1/1  166/2/1  167/3/1  165/4/1 
f  166/1/1  168/2/1  169/3/1  167/4/1 
f  168/1/1  170/2/1  171/3/1  169/4/1 
f  170/1/1  172/2/1  173/3/1  171/4/1 
f  172/1/1  174/2/1  175/3/1  173/4/1 
f  174/1/1  176/2/1  177/3/1  175/4/1 
f  176/1/1  178/2/1  179/3/1  177/4/1 
f  178/1/1  180/2/1  181/3/1  179/4/1 
f  180/1/1  182/2/1  183/3/1  181/4/1 
f  182/1/1  184/2/1  185/3/1  183/4/1 
f  184/1/1  186/2/1  187/3/1  185/4/1 
f  186/1/1  188/2/1  189/3/1  187/4/1 
f  188/1/1  190/2/1  191/3/1  189/4/1 
f  190/1/1  192/2/1  193/3/1  191/4/1 
f  192/1/1  194/2/1  195/3/1  193/4/1 
f  194/1/1  196/2/1  197/3/1  195/4/1 
f  196/1/1  198/2/1  199/3/1  197/4/1 
f  198/1/1  200/2/1  201/3/1  199/4/1 
f  200/1/1  202/2/1  203/3/1  201/4/1 
f  202/1/1  204/2/1  205/3/1  203/4/1 
f  204/1/1  206/2/1  207/3/1  205/4/1 
f  206/1/1  208/2/1  209/3/1  207/4/1 
f  208/1/1  210/2/1  211/3/1  209/4/1 
f  210/1/1  212/2/1  213/3/1  211/4/1 
f  212/1/1  214/2/1  215/3/1  213/4/1 
f  214/1/1  216/2/1  217/3/1  215/4/1 
f  216/1/1  218/2/1  219/3/1  217/4/1 
f  218/1/1  220/2/1  221/3/1  219/4/1 
f  220/1/1  222/2/1  223/3/1  221/4/1 
f  222/1/1  224/2/1  225/3/1  223/4/1 
f  224/1/1  226/2/1  227/3/1  225/4/1 
f  226/1/1  228/2/1  229/3/1  227/4/1 
f  228/1/1  230/2/1  231/3/1  229/4/1 
f  230/1/1  232/2/1  233/3/1  231/4/1 
f  232/1/1  234/2/1  235/3/1  233/4/1 
f  234/1/1  236/2/1  237/3/1  235/4/1 
f  236/1/1  238/2/1  239/3/1  237/4/1 
f  238/1/1  240/2/1  241/3/1  239/4/1 
f  240/1/1  242/2/1  243/3/1  241/4/1 
f  242/1/1  244/2/1  245/3/1  243/4/1 
f  244/1/1  246/2/1  247/3/1  245/4/1 
f  246/1/1  248/2/1  249/3/1  247/4/1 
f  248/1/1  250/2/1  251/3/1  249/4/1 
f  250/1/1  252/2/1  253/3/1  251/4/1 
f  252/1/1  254/2/1  255/3/1  253/4/1 
f  254/1/1  256/2/1  257/3/1  255/4/1 
f  256/1/1  258/2/1  259/3/1  257/4/1 
f  258/1/1  260/2/1  261/3/1  259/4/1 
f  260/1/1  262/2/1  263/3/1  261/4/1 
f  262/1/1  264/2/1  265/3/1  263/4/1 
f  264/1/1  266/2/1  267/3/1  265/4/1 
f  266/1/1  268/2/1  269/3/1  267/4/1 
f  268/1/1  270/2/1  271/3/1  269/4/1 
f  270/1/1  272/2/1  273/3/1  271/4/1 
f  272/1/1  274/2/1  275/3/1  273/4/1 
f  274/1/1  276/2/1  277/3/1  275/4/1 
f  276/1/1  278/2/1  279/3/1  277/4/1 
f  278/1/1  280/2/1  281/3/1  279/4/1 
f  280/1/1  282/2/1  283/3/1  281/4/1 
f  282/1/1  284/2/1  285/3/1  283/4/1 
f  284/1/1  286/2/1  287/3/1  285/4/1 
f  286/1/1  288/2/1  289/3/1  287/4/1 
f  288/1/1  290/2/1  291/3/1  289/4/1 
f  290/1/1  292/2/1  293/3/1  291/4/1 
f  292/1/1  294/2/1  295/3/1  293/4/1 
f  294/1/1  296/2/1  297/3/1  295/4/1 
f  296/1/1  298/2/1  299/3/1  297/4/1 
f  298/1/1  300/2/1  301/3/1  299/4/1 
f  300/1/1  302/2/1  303/3/1  301/4/1 
f  302/1/1  304/2/1  305/3/1  303/4/1 
f  304/1/1  306/2/1  307/3/1  305/4/1 
f  306/1/1  308/2/1  309/3/1  307/4/1 
f  308/1/1  310/2/1  311/3/1  309/4/1 
f  310/1/1  312/2/1  313/3/1  311/4/1 
f  312/1/1  314/2/1  315/3/1  313/4/1 
g mesh_[01]_[00]
f  316/5/1  317/6/1  318/7/1  319/8/1 
f  320/9/1  321/10/1  322/11/1  323/12/1 
f  321/9/1  324/10/1  325/11/1  322/12/1 
f  324/9/1  326/10/1  327/11/1  325/12/1 
f  328/13/1  329/14/1  330/15/1  331/16/1 
f  4/17/1  3/18/1  332/19/1  333/20/1 
f  3/21/1  6/22/1  334/23/1  332/24/1 
f  6/13/1  8/14/1  335/15/1  334/16/1 
f  336/13/1  337/14/1  338/15/1  339/16/1 
f  340/9/1  341/10/1  342/11/1  343/12/1 
f  341/9/1  344/10/1  345/11/1  342/12/1 
f  344/25/1  346/26/1  347/27/1  345/28/1 
f  346/9/1  348/10/1  349/11/1  347/12/1 
f  348/9/1  350/10/1  351/11/1  349/12/1 
f  352/13/1  353/14/1  354/15/1  355/16/1 
f  356/9/1  357/10/1  358/11/1  359/12/1 
f  357/9/1  360/10/1  361/11/1  358/12/1 
f  360/9/1  362/10/1  363/11/1  361/12/1 
f  362/9/1  364/10/1  365/11/1  363/12/1 
f  366/13/1  367/14/1  368/15/1  369/16/1 
f  370/9/1  371/10/1  372/11/1  373/12/1 
f  371/9/1  374/10/1  375/11/1  372/12/1 
f  374/9/1  376/10/1  377/11/1  375/12/1 
f  378/13/1  379/14/1  329/15/1  328/16/1 
f  380/9/1  381/10/1  382/11/1  383/12/1 
f  381/9/1  384/10/1  385/11/1  382/12/1 
f  384/9/1  386/10/1  387/11/1  385/12/1 
f  388/29/1  28/30/1  337/31/1  336/32/1 
f  42/13/1  389/14/1  353/15/1  352/16/1 
f  390/13/1  391/14/1  367/15/1  366/16/1 
f  392/13/1  393/14/1  379/15/1  378/16/1 
f  394/13/1  25/14/1  28/15/1  388/16/1 
f  41/13/1  395/14/1  389/15/1  42/16/1 
f  396/13/1  397/14/1  391/15/1  390/16/1 
f  398/33/1  399/34/1  393/35/1  392/36/1 
f  400/13/1  401/14/1  397/15/1  396/16/1 
f  402/13/1  403/14/1  399/15/1  398/16/1 
f  404/13/1  405/14/1  401/15/1  400/16/1 
f  406/13/1  407/14/1  403/15/1  402/16/1 
f  408/37/1  409/38/1  410/39/1  411/40/1 
f  412/13/1  413/14/1  405/15/1  404/16/1 
f  201/13/1  203/14/1  407/15/1  406/16/1 
f  309/41/1  311/42/1  413/43/1  412/44/1 
g mesh_[02]_[00]
f  11/45/1  14/46/1  317/47/1  316/48/1 
f  32/45/1  34/46/1  346/47/1  344/48/1 
f  48/45/1  50/46/1  360/47/1  357/48/1 
f  52/45/1  54/46/1  364/47/1  362/48/1 
f  67/45/1  70/46/1  384/47/1  381/48/1 
f  75/45/1  78/46/1  414/47/1  415/48/1 
f  90/45/1  89/46/1  416/47/1  417/48/1 
f  95/45/1  98/46/1  418/47/1  419/48/1 
f  103/45/1  106/46/1  420/47/1  421/48/1 
f  85/45/1  111/46/1  422/47/1  86/48/1 
f  127/45/1  129/46/1  423/47/1  424/48/1 
f  139/45/1  141/46/1  425/47/1  426/48/1 
f  149/45/1  151/46/1  427/47/1  428/48/1 
f  157/45/1  159/46/1  429/47/1  430/48/1 
f  165/45/1  167/46/1  431/47/1  432/48/1 
f  173/45/1  175/46/1  433/47/1  434/48/1 
f  181/45/1  183/46/1  435/47/1  436/48/1 
f  189/45/1  191/46/1  437/47/1  438/48/1 
f  213/45/1  215/46/1  439/47/1  440/48/1 
f  215/45/1  217/46/1  441/47/1  439/48/1 
f  227/45/1  229/46/1  442/47/1  443/48/1 
f  231/45/1  233/46/1  444/47/1  445/48/1 
f  249/45/1  251/46/1  446/47/1  447/48/1 
f  255/45/1  257/46/1  448/47/1  449/48/1 
f  265/45/1  267/46/1  450/47/1  451/48/1 
f  273/45/1  275/46/1  452/47/1  453/48/1 
f  281/45/1  283/46/1  454/47/1  455/48/1 
f  295/45/1  297/46/1  456/47/1  457/48/1 
f  301/45/1  303/46/1  458/47/1  459/48/1 
f  313/49/1  315/50/1  460/51/1  461/52/1 
